<svg version="1.1" xmlns="http://www.w3.org/2000/svg" xmlns:xlink="http://www.w3.org/1999/xlink" width="414.74845" height="349.61931" viewBox="0,0,414.74845,349.61931"><g transform="translate(-29.91672,-5.69033)"><g data-paper-data="{&quot;isPaintingLayer&quot;:true}" fill-rule="nonzero" stroke-linejoin="miter" stroke-miterlimit="10" stroke-dasharray="" stroke-dashoffset="0" style="mix-blend-mode: normal"><path d="M32.06869,50.90356c0.29706,-0.64294 2.52477,-0.31419 3.14931,-0.77985c0.85837,-0.64002 1.67001,-1.87323 2.24771,-2.62453c0.76048,-0.989 -0.39907,-2.57777 0.5137,-3.43218c5.56305,-5.20736 13.81271,-7.90032 23.02063,-7.90032c2.67702,0 6.67118,0.50725 9.70614,1.19383c3.15122,0.71288 5.29439,1.60608 5.29439,1.60608l0.97714,2.74644l5.19273,0.78859c0,0 2.25421,0.677 3.97691,3.23031c2.65202,3.93071 5.18603,10.93823 5.18603,16.10141c0,3.1925 -0.32739,8.64706 -1.72558,13.50702c-1.55575,5.4076 -4.19915,10.07904 -4.19915,10.07904l-3.48388,0.33965c0,0 0.7968,4.90346 0.24756,5.82576c-4.16636,6.99632 -8.49688,11.10066 -14.44376,13.44948c-1.85507,0.73269 -4.77013,2.79905 -6.72852,2.79905c-1.23048,0 -3.63598,-0.45682 -3.63598,-0.45682l-1.31131,-2.13077l-4.2476,-0.33223c0,0 -3.86965,-1.56785 -7.14937,-6.05621c-5.22615,-7.15208 -11.00658,-19.41106 -12.75369,-27.11171c-0.09782,-0.43115 0.67421,-1.06811 1.02826,-1.74592c0.54194,-1.03753 0.27607,-2.00412 0.1701,-2.64149c-0.14571,-0.87643 -2.09913,-0.57089 -2.19261,-1.41273c-0.15912,-1.4331 -0.24113,-2.81033 -0.24113,-4.11212c0,-11.25264 -0.03918,-7.81059 1.40197,-10.92977z" fill="#dacdc3" stroke="#c2b2ad" stroke-width="1.5" stroke-linecap="butt"/><path d="M79.18719,65.6339c-0.61833,4.32831 -3.88968,7.44137 -7.30677,6.95322c-3.41709,-0.48816 -5.68593,-4.39267 -5.0676,-8.72098c0.61833,-4.32831 3.88968,-7.44137 7.30677,-6.95321c3.41709,0.48816 5.68593,4.39267 5.0676,8.72098z" fill="#321600" stroke="none" stroke-width="0" stroke-linecap="butt"/><path d="M69.05953,89.47619l12,-46.5" fill="none" stroke="#c2b2ad" stroke-width="2.5" stroke-linecap="round"/><path d="M74.89286,82.47619l9.83333,-37.5" fill="none" stroke="#c2b2ad" stroke-width="2.5" stroke-linecap="round"/><path d="M89.72619,56.64287l-20.5,-12" fill="none" stroke="#c2b2ad" stroke-width="2.5" stroke-linecap="round"/><path d="M90.70239,62.23811l-23.30953,-12.42857" fill="none" stroke="#c2b2ad" stroke-width="2.5" stroke-linecap="round"/><path d="M73.70238,71.40477l2.92857,-11.57143" fill="none" stroke="#622b00" stroke-width="3" stroke-linecap="round"/><path d="M35.95238,81.9762l18.28571,12.42857" fill="none" stroke="#c2b2ad" stroke-width="2.5" stroke-linecap="round"/><path d="M54.52382,98.83334l-15.28572,-10.28572" fill="none" stroke="#c2b2ad" stroke-width="2.5" stroke-linecap="round"/><path d="M48.38095,42.97619c-2.09745,1.01377 -6.42857,-1.42857 -6.42857,-1.42857c0,0 6.49217,-3.30801 9.8995,-4.10452c3.86755,-0.9041 12.1005,-1.03834 12.1005,-1.03834c0,0 -13.47397,5.55766 -15.57143,6.57143z" fill="#c2b2ad" stroke="none" stroke-width="0" stroke-linecap="butt"/><path d="M69.2381,104.26192c0,0 0.58263,-3.16868 2,-4.42857c1.41737,-1.25989 9.57143,-5.85715 9.57143,-5.85715c0,0 -2.40274,4.11989 -4.32611,5.82955c-1.93372,1.71886 -7.24532,4.45616 -7.24532,4.45616z" fill="#c2b2ad" stroke="none" stroke-width="0" stroke-linecap="butt"/><path d="M39.09524,89.40477c0,0 -2.66598,-5.06208 -3.75454,-7.84137c-1.14653,-2.92731 -2.95975,-9.30148 -2.95975,-9.30148c0,0 4.64403,3.42706 5.71429,6.71428c1.07026,3.28723 1,10.42857 1,10.42857z" fill="#c2b2ad" stroke="none" stroke-width="0" stroke-linecap="butt"/><path d="M48.52381,102.69049c0,0 1.94093,-1.55294 4,-1.42857c0.89831,0.05426 3.16,2.57779 6.713,3.15081c2.13198,0.34384 3.56387,-0.58295 5.55735,-0.7562c2.29929,-0.19983 5.01537,0.31967 5.01537,0.31967c0,0 -2.26247,1.58692 -5.28039,2.72835c-2.11757,0.80091 -4.89716,1.23745 -6.28052,1.37636c-2.62636,0.26372 -0.74948,-2.90258 -3.02818,-2.80568c-1.03084,0.04384 -1.34669,0.05383 -1.99267,0.01481c-2.89326,-0.17476 -4.70396,-2.59957 -4.70396,-2.59957z" fill="#c2b2ad" stroke="none" stroke-width="0" stroke-linecap="butt"/><path d="M55.1627,60.27844c0.77176,4.63055 -1.43636,8.85664 -4.93197,9.43925c-3.49561,0.5826 -6.95499,-2.69891 -7.72675,-7.32945c-0.77176,-4.63055 1.43637,-8.85664 4.93197,-9.43924c3.49561,-0.5826 6.95499,2.69891 7.72675,7.32945z" fill="#321600" stroke="none" stroke-width="0" stroke-linecap="butt"/><path d="M45.80953,46.97619c-2.94851,1.23647 -8.0154,3.44107 -9.09034,2.8599c-0.80569,-0.4356 0.29242,-1.24809 0.9528,-2.31859c0.79629,-1.2908 0.70897,-3.25559 0.70897,-3.25559c0,0 4.64457,-3.68505 7.20683,-4.75955c3.19971,-1.34181 10.50746,-2.66903 10.50746,-2.66903c0,0 0.06889,2.0192 -1.52758,3.38518c-1.19067,1.01877 -3.94164,1.23042 -4.92991,2.356c-1.60478,1.82775 -0.62401,3.05797 -3.82823,4.40168z" fill="#c37c70" stroke="none" stroke-width="0" stroke-linecap="butt"/><path d="M82.19048,91.35715c0,0 -4.83505,-4.73303 -3.85714,-7.14286c0.28616,-0.7052 0.29913,-2.20942 1.75054,-3.46093c0.81765,-0.70504 2.87197,-0.84226 3.77461,-1.90763c1.3428,-1.58487 1.96365,-2.35783 3.02365,-3.98152c1.28487,-1.96814 3.30834,-3.22135 3.30834,-3.22135c0,0 -0.91784,4.11458 -1.64024,6.1689c-0.79453,2.25946 -2.93118,6.8311 -2.93118,6.8311l-4.04064,0.56822z" fill="#c37c70" stroke="none" stroke-width="0" stroke-linecap="butt"/><path d="M84.39377,75.82093c0.18953,0.60206 -0.41941,2.04447 -1.36012,2.34062c-0.94071,0.29615 -3.42838,1.47674 -3.61791,0.87468c-0.11878,-0.37732 0.92805,-0.68163 1.53108,-1.35574c0.35917,-0.40149 0.19219,-1.3029 0.54333,-1.41345c0.94071,-0.29615 2.7141,-1.04817 2.90363,-0.44611z" fill="#c37c70" stroke="none" stroke-width="0" stroke-linecap="butt"/><path d="M179.9795,83.93235z" fill="#211e24" stroke="none" stroke-width="0" stroke-linecap="butt"/><path d="M189.19333,37.04756c0,6.37328 -0.16073,6.40909 -1.66157,8.31391c-1.24564,1.58093 -3.35801,5.2389 -7.58113,7.68898c-1.32533,0.7689 -4.40851,3.52903 -5.10922,6.86651c-0.92535,4.40732 -1.0801,9.32413 -3.2324,11.0222c-0.97738,0.77111 -1.36646,3.27597 -6.11193,4.69579c-3.84974,1.15183 -9.45419,1.34168 -11.73921,1.28886c-5.10168,-0.11792 -6.85009,-3.68767 -10.43012,-6.69704c-1.99952,-1.68079 -1.02024,-4.14522 -2.17707,-9.06988c-0.53832,-2.29162 -3.43951,-7.87761 -4.61315,-8.87309c-3.72621,-3.16056 -4.71359,-5.92052 -6.12896,-8.51469c-0.91043,-1.66868 -1.52455,-4.88619 -1.70179,-7.67722c-0.03485,-0.5488 -0.05281,-1.0811 -0.05281,-1.5819c0,-4.69062 1.9975,-8.92842 4.57701,-13.06668c1.02818,-1.64949 3.04856,-2.57127 4.21311,-4.12936c1.47231,-1.96985 2.11899,-4.52295 3.68096,-6.03548c5.54678,-5.37123 8.89145,-5.58813 17.16422,-5.58813c7.81861,0 12.60274,0.22721 18.04566,5.08497c2.81322,2.51078 3.4477,6.77629 5.71975,10.75014c2.92818,5.12142 7.13867,10.23764 7.13867,15.52212z" fill="#211e24" stroke="none" stroke-width="0" stroke-linecap="butt"/><path d="M139.52929,94.14307c0,0 2.0177,-1.4271 3.50887,-3.00961c1.88258,-1.99791 3.46417,-4.3512 5.085,-5.59294c1.85394,-1.42033 4.54713,-2.34406 4.83232,-3.93421c0.26977,-1.5042 -1.29129,-4.72216 -1.46068,-7.77407c-0.12353,-2.22577 1.2568,-4.19354 0.86284,-6.18034c-0.54771,-2.76217 -0.01606,-4.24395 -0.67944,-6.07076c-0.88348,-2.43296 -2.90489,-4.77672 -2.90489,-4.77672h24.46951c0,0 -1.99922,3.05715 -2.17163,8.36144c-0.08531,2.62448 1.57919,5.31301 2.13254,8.14047c0.3483,1.77972 -0.40029,4.05226 -0.24175,5.02464c0.33907,2.07961 -0.38508,5.91751 0.60945,7.85427c1.6226,3.15988 5.47157,5.42026 5.47157,5.42026z" fill="#211e24" stroke="none" stroke-width="0" stroke-linecap="butt"/><path d="M135.90418,108.46227c0,0 -6.13756,-16.13175 -1.08753,-16.13175c1.4114,0 4.93871,-0.72098 8.03363,-1.80187c2.00231,-0.6993 3.2967,-1.68416 5.49649,-1.83728c7.45326,-0.51878 16.01545,-1.42412 25.83532,-0.52859c1.31791,0.12019 2.18743,1.43421 3.62058,2.04207c1.63184,0.69213 3.83321,0.68369 5.4051,0.76049c19.80973,0.96783 6.43872,17.49693 6.43872,17.49693c0,0 -5.65944,11.17953 -7.34096,26.27333c-1.6366,14.69058 1.66406,41.2456 -2.18547,56.65362c-1.8236,7.29911 1.01676,18.83743 -2.10066,23.89913c-4.002,6.49798 -24.08874,7.50151 -29.14649,-1.26043c-2.41881,-4.19029 0.36626,-15.72334 -1.10214,-21.90821c-3.11583,-13.12376 -3.7134,-40.68372 -4.93334,-53.94874c-1.64189,-17.8531 -6.93322,-29.70871 -6.93322,-29.70871z" fill="#211e24" stroke="none" stroke-width="0" stroke-linecap="butt"/><path d="M123.61884,109.10386c0,0 -8.43539,-14.75203 -4.17081,-22.64152c4.68088,-8.65963 9.56081,5.16386 15.09435,5.16386c0.20689,0 3.31263,4.53457 3.13113,15.09896c-0.16434,9.56494 -3.56039,24.56503 -4.39893,36.59458c-0.23406,3.35774 -2.69601,7.91629 -2.91041,11.1232c-0.21909,3.27717 0.59784,6.66989 0.44938,9.62062c-0.61477,12.21927 -1.7483,20.86842 -2.50255,22.11299c-1.85813,3.06606 -10.07371,7.36499 -13.55073,-0.45533c-0.79315,-1.78389 -0.43431,-15.96684 0.92867,-32.30591c0.25573,-3.06566 -0.41128,-6.92579 -0.00278,-10.01331c0.23314,-1.7621 1.98899,-3.51612 2.27943,-5.24591c2.60222,-15.49862 5.65325,-29.0522 5.65325,-29.0522z" fill="#211e24" stroke="none" stroke-width="0" stroke-linecap="butt"/><path d="M113.44251,211.97132c-1.92812,-8.4657 0.13247,-12.29398 -0.83337,-18.13835c-0.85803,-5.192 -3.50927,-9.20965 -3.25754,-10.09291c0.88509,-3.1054 3.10089,-5.53017 5.07484,-8.04332c3.25788,-4.1478 6.63812,-7.36453 8.05152,-5.63643c0.76171,0.9313 5.20872,-1.99899 7.09704,6.80738c0.39574,1.84559 -1.46718,19.67845 -1.06479,21.75974c0.56082,2.90075 -1.3582,14.30445 -0.68166,17.51849c0.66204,3.14515 3.58902,12.75731 5.09318,22.20468c0.29201,1.83406 0.04115,3.01152 -0.57079,3.70652c-0.85096,0.96649 -3.53301,-4.21108 -5.29147,-4.64218c-0.87914,-0.21553 -0.67773,4.66392 -1.60038,4.27466c-3.45502,-1.45765 -6.78673,-3.72306 -6.78673,-3.72306c0,0 -4.54672,-22.9957 -5.22987,-25.99519z" data-paper-data="{&quot;index&quot;:null}" fill="#211e24" stroke="none" stroke-width="0" stroke-linecap="butt"/><path d="M119.39373,277.36431c0,0 -2.05604,-1.4209 -2.99848,-5.42518c-0.98257,-4.17479 -0.85321,-11.00001 -0.85321,-14.0598c0,-1.97363 -0.46186,-11.91818 0.32001,-14.38776c1.09139,-3.44726 3.07854,-6.45663 3.07854,-6.45663h6.11738c0,0 -2.14065,2.60489 -3.60436,5.90002c-1.22562,2.75917 -1.32035,13.32024 -1.69378,15.33952c-1.12265,6.07065 -0.3661,19.08983 -0.3661,19.08983z" fill="#211e24" stroke="none" stroke-width="0" stroke-linecap="butt"/><path d="M132.05212,278.22866c0,0 -2.37689,-0.77244 -4.42681,-4.339c-2.1372,-3.71842 -3.96823,-10.29472 -4.84466,-13.2263c-0.56532,-1.89094 -1.79855,-11.7201 -1.75683,-14.31016c0.05826,-3.61544 1.10015,-7.0679 1.10015,-7.0679l6.93211,-5.95406c0,0 -2.37589,7.31073 -2.83442,10.88706c-0.38395,2.99461 0.49262,13.5739 0.71323,15.61553c0.66323,6.13785 5.11723,18.39484 5.11723,18.39484z" fill="#211e24" stroke="none" stroke-width="0" stroke-linecap="butt"/><path d="M131.41584,246.76798c-0.28475,-1.28219 -0.69008,-3.39698 -1.76287,-5.01045c-1.2812,-1.92688 -4.55226,-6.22566 -4.55226,-6.22566l7.16487,1.78127c0,0 1.79168,1.63382 2.7116,3.73485c0.65902,1.50516 0.55442,3.31418 0.48391,4.63808c-0.10932,2.05248 0.2236,13.85597 -0.86464,16.84668c-1.04381,2.86856 -3.05961,4.21988 -3.05961,4.21988c0,0 0.7351,-16.12993 -0.12097,-19.98466z" data-paper-data="{&quot;index&quot;:null}" fill="#211e24" stroke="none" stroke-width="0" stroke-linecap="butt"/><path d="M207.68141,89.06792c0.75246,1.28733 1.85066,2.97679 1.47288,4.92268c-0.67709,3.48758 -3.68951,7.7989 -4.8279,12.0952c-1.27733,4.82066 -1.44958,16.0102 -0.34081,29.36108c0.16122,1.94125 2.64286,4.38027 2.85336,6.40104c0.21882,2.10057 -0.5559,6.89133 -0.49825,8.94346c0.21472,7.64244 0.31077,12.2915 -0.83436,19.84157c-3.89304,25.66759 -7.28873,6.91432 -11.28686,2.0896c-0.67374,-0.81303 -2.13127,-10.40931 -3.28224,-23.23095c-0.21698,-2.4171 1.32508,-7.13401 0.98407,-9.55173c-3.17836,-22.53452 -9.25808,-46.45777 -8.98186,-47.71494c0.51696,-2.35287 5.25894,-1.47604 10.51762,-2.43863c3.25978,-0.5967 7.83417,-3.12788 8.35128,-3.86354c1.47284,-2.09533 4.46134,0.72995 5.87306,3.14515z" fill="#211e24" stroke="none" stroke-width="0" stroke-linecap="butt"/><path d="M208.05925,211.43995c-0.68315,2.99949 -4.39653,21.99519 -4.39653,21.99519c0,0 -3.3317,2.26541 -6.78673,3.72306c-0.92265,0.38926 -0.72124,-4.49019 -1.60038,-4.27466c-1.75846,0.4311 -4.44051,5.60867 -5.29147,4.64218c-0.61194,-0.69501 -0.8628,-1.87246 -0.57079,-3.70652c1.50417,-9.44736 4.43115,-19.05953 5.09318,-22.20468c0.67655,-3.21404 -1.24248,-14.61774 -0.68166,-17.51849c0.4024,-2.08129 -1.46053,-19.91415 -1.06479,-21.75974c1.88831,-8.80637 6.33533,-5.87608 7.09704,-6.80738c1.4134,-1.7281 4.29364,1.82197 7.55152,5.96977c1.97395,2.51315 4.35642,4.27125 5.24151,7.37665c0.25174,0.88326 -2.73284,6.40091 -3.59087,11.59291c-0.96584,5.84437 1.76142,8.50599 -0.1667,16.97168z" data-paper-data="{&quot;index&quot;:null}" fill="#211e24" stroke="none" stroke-width="0" stroke-linecap="butt"/><path d="M202.7562,251.93053c-0.37343,-2.01928 -0.46816,-12.58035 -1.69378,-15.33952c-1.46371,-3.29514 -3.60436,-5.90002 -3.60436,-5.90002h6.11738c0,0 1.98714,3.00937 3.07854,6.45663c0.78186,2.46958 0.32001,12.41413 0.32001,14.38776c0,3.05979 0.12936,9.88501 -0.85321,14.0598c-0.94244,4.00428 -2.99848,5.42518 -2.99848,5.42518c0,0 0.75655,-13.01918 -0.3661,-19.08983z" data-paper-data="{&quot;index&quot;:null}" fill="#211e24" stroke="none" stroke-width="0" stroke-linecap="butt"/><path d="M190.46392,271.88473c0,0 4.45399,-12.25699 5.11723,-18.39484c0.22062,-2.04163 1.09719,-12.62091 0.71323,-15.61553c-0.45853,-3.57634 -2.83442,-10.88706 -2.83442,-10.88706l6.93211,5.95406c0,0 1.04189,3.45246 1.10015,7.0679c0.04173,2.59006 -1.19151,12.41922 -1.75683,14.31016c-0.87643,2.93158 -2.70746,9.50788 -4.84466,13.2263c-2.04992,3.56656 -4.42681,4.339 -4.42681,4.339z" data-paper-data="{&quot;index&quot;:null}" fill="#211e24" stroke="none" stroke-width="0" stroke-linecap="butt"/><path d="M191.10018,240.42402c-0.85607,3.85473 -0.12097,19.98466 -0.12097,19.98466c0,0 -2.01581,-1.35132 -3.05961,-4.21988c-1.08824,-2.99071 -0.75532,-14.79419 -0.86464,-16.84668c-0.07052,-1.3239 -0.17511,-3.13292 0.48391,-4.63808c0.91993,-2.10103 2.7116,-3.73485 2.7116,-3.73485l7.16487,-1.78127c0,0 -3.27107,4.29878 -4.55226,6.22566c-1.0728,1.61347 -1.47812,3.72826 -1.76287,5.01045z" data-paper-data="{&quot;index&quot;:null}" fill="#211e24" stroke="none" stroke-width="0" stroke-linecap="butt"/><path d="M143.01632,255.27822c-0.85803,-8.45178 -2.14985,-25.86723 -1.89812,-27.30504c0.88509,-5.05511 4.00717,-19.87761 5.98112,-23.96862c3.25788,-6.75198 4.37243,9.76235 5.78582,12.57543c0.76171,1.51601 5.20872,-3.25404 7.09704,11.08137c0.39574,3.00434 -1.46718,32.03348 -1.06479,35.4215c0.56082,4.72198 -1.3582,23.28544 -0.68166,28.5174c0.66204,5.11981 3.58902,20.76694 5.09318,36.14578c0.29201,2.98557 0.04115,4.90228 -0.57079,6.03365c-0.85096,1.5733 -5.9692,0.03538 -6.89185,-0.59827c-3.45502,-2.37283 -6.78673,-6.06057 -6.78673,-6.06057c0,0 -5.04672,-37.43345 -5.72987,-42.31616c0,0 1.14796,-7.18168 1.19147,-13.09274c0.04645,-6.31024 -1.02614,-11.52149 -1.52483,-16.43373z" data-paper-data="{&quot;index&quot;:null}" fill="#211e24" stroke="none" stroke-width="0" stroke-linecap="butt"/><path d="M116.83481,342.47181c0,0 0.41893,-2.46389 3.64983,-5.01021c3.36848,-2.65474 9.60899,-5.42176 12.38214,-6.71479c1.78874,-0.83403 10.60653,-5.45509 13.17517,-5.79008c3.58554,-0.46762 7.15274,0.06164 7.15274,0.06164l2.58514,5.54431c0,0 -3.26548,-0.83932 -6.87048,-0.77342c-3.01864,0.05519 -12.63038,4.43233 -14.61831,4.94721c-5.97638,1.54791 -17.45624,7.73535 -17.45624,7.73535z" fill="#211e24" stroke="none" stroke-width="0" stroke-linecap="butt"/><path d="M121.40072,354.30965c0,0 -0.30437,-2.48065 2.0618,-5.84572c2.46693,-3.50836 7.6534,-7.94692 9.93998,-9.98011c1.4749,-1.31145 9.86213,-6.58285 12.22719,-7.63957c3.30137,-1.47505 6.8707,-1.98973 6.8707,-1.98973l8.32572,3.7666c0,0 -7.6299,0.93611 -11.06498,2.03186c-2.87634,0.9175 -12.09414,6.18265 -13.85128,7.24536c-5.28259,3.19489 -14.50915,12.41131 -14.50915,12.41131z" fill="#211e24" stroke="none" stroke-width="0" stroke-linecap="butt"/><path d="M181.24419,271.71195c0.04351,5.91106 1.19146,13.09274 1.19146,13.09274c-0.3389,2.42226 -2.7517,13.52207 -4.08949,23.42175c-1.35888,10.05575 -1.64038,18.89441 -1.64038,18.89441c0,0 -3.3317,3.68775 -6.78672,6.06057c-0.92264,0.63365 -6.04089,2.17157 -6.89185,0.59827c-0.61194,-1.13136 -0.8628,-3.04807 -0.57079,-6.03364c1.50417,-15.37884 3.76448,-29.52597 4.42652,-34.64578c0.17459,-1.35019 -0.36761,-3.80741 -0.12694,-6.89903c0.30725,-3.94697 1.36559,-8.82296 1.16086,-12.61752c-0.25632,-4.7506 -2.28023,-9.55317 -2.04891,-11.50085c0.18556,-1.56238 0.60205,-8.69825 0.49697,-15.87033c-0.12278,-8.38053 -0.775,-16.93228 -0.56175,-18.55117c1.88831,-14.33541 6.33533,-9.56535 7.09704,-11.08137c1.41339,-2.81308 2.52794,-19.3274 5.78582,-12.57543c1.97395,4.09101 5.09603,18.91351 5.98112,23.96862c0.25173,1.43781 -1.70676,16.01993 -2.56479,24.47171c-0.31203,3.07355 1.31794,7.76415 0.97125,11.26777c-0.2074,2.09598 -1.8468,5.63731 -1.82941,7.99928z" data-paper-data="{&quot;index&quot;:null}" fill="#211e24" stroke="none" stroke-width="0" stroke-linecap="butt"/><path d="M191.49429,334.73647c-1.98793,-0.51488 -11.59967,-4.89202 -14.61831,-4.94721c-3.605,-0.0659 -6.87048,0.77342 -6.87048,0.77342l2.58513,-5.54431c0,0 3.56721,-0.52927 7.15274,-0.06164c2.56864,0.33499 11.38643,4.95605 13.17517,5.79008c2.77316,1.29303 9.01367,4.06005 12.38214,6.7148c3.2309,2.54632 3.64983,5.01021 3.64983,5.01021c0,0 -11.47985,-6.18744 -17.45623,-7.73535z" data-paper-data="{&quot;index&quot;:null}" fill="#211e24" stroke="none" stroke-width="0" stroke-linecap="butt"/><path d="M204.38463,354.30965c0,0 -9.22656,-9.21642 -14.50915,-12.41131c-1.75714,-1.06272 -10.97494,-6.32786 -13.85128,-7.24536c-3.43508,-1.09575 -11.06498,-2.03186 -11.06498,-2.03186l8.32572,-3.76661c0,0 3.56933,0.51468 6.8707,1.98973c2.36506,1.05671 10.75229,6.32812 12.22719,7.63957c2.28659,2.03319 7.47305,6.47175 9.93998,9.98011c2.36617,3.36507 2.0618,5.84572 2.0618,5.84572z" data-paper-data="{&quot;index&quot;:null}" fill="#211e24" stroke="none" stroke-width="0" stroke-linecap="butt"/><path d="M152.42184,231.71414v-27.5h20v27.5c0,0 -2.26621,-1.35143 -4.25121,-4.10574c-1.01865,-1.41344 -1.77095,-3.58734 -2.64721,-4.95915c-0.71877,-1.12526 -1.57548,-1.60178 -2.26825,-1.60178c-0.55646,0 -1.8036,0.45687 -2.42179,1.54445c-0.95551,1.68103 -1.33444,4.40585 -2.52067,5.68791c-2.81881,3.04655 -5.89088,3.4343 -5.89088,3.4343z" fill="#211e24" stroke="none" stroke-width="0" stroke-linecap="butt"/><path d="M411.97951,84.93235z" fill="#211e24" stroke="none" stroke-width="0" stroke-linecap="butt"/><path d="M421.19334,38.04756c0,6.37329 -0.16073,6.40909 -1.66157,8.31391c-1.24565,1.58093 -3.35802,5.2389 -7.58114,7.68898c-1.32533,0.7689 -4.40851,3.52903 -5.10922,6.86651c-0.92534,4.40732 -1.08011,9.32413 -3.2324,11.0222c-0.97738,0.77111 -1.36646,3.27597 -6.11193,4.69579c-3.84974,1.15183 -9.4542,1.34168 -11.73921,1.28887c-5.10169,-0.11792 -6.85009,-3.68767 -10.43012,-6.69705c-1.99952,-1.68079 -1.02024,-4.14522 -2.17707,-9.06987c-0.53832,-2.29163 -3.43951,-7.87762 -4.61315,-8.87309c-3.72621,-3.16056 -4.71358,-5.92052 -6.12895,-8.51469c-0.91043,-1.66868 -1.52456,-4.88619 -1.7018,-7.67722c-0.03485,-0.54879 -0.05281,-1.0811 -0.05281,-1.5819c0,-4.69062 1.9975,-8.92842 4.57701,-13.06668c1.02818,-1.64949 3.04856,-2.57127 4.21311,-4.12936c1.47231,-1.96985 2.11899,-4.52295 3.68096,-6.03548c5.54678,-5.37123 8.89144,-5.58813 17.16422,-5.58813c7.8186,0 12.60275,0.22722 18.04566,5.08498c2.81322,2.51078 3.44769,6.77629 5.71974,10.75014c2.92818,5.12143 7.13867,10.23764 7.13867,15.52213z" fill="#211e24" stroke="none" stroke-width="0" stroke-linecap="butt"/><path d="M371.52929,95.14308c0,0 2.0177,-1.4271 3.50887,-3.00961c1.88259,-1.99791 3.46417,-4.3512 5.085,-5.59294c1.85394,-1.42033 4.54713,-2.34407 4.83232,-3.93421c0.26977,-1.50419 -1.29129,-4.72216 -1.46067,-7.77407c-0.12353,-2.22577 1.2568,-4.19354 0.86284,-6.18033c-0.54771,-2.76217 -0.01606,-4.24395 -0.67944,-6.07076c-0.88348,-2.43296 -2.9049,-4.77672 -2.9049,-4.77672h24.46951c0,0 -1.99923,3.05715 -2.17164,8.36144c-0.08531,2.62448 1.57919,5.31301 2.13255,8.14047c0.3483,1.77972 -0.4003,4.05226 -0.24175,5.02464c0.33907,2.07961 -0.38508,5.91751 0.60946,7.85427c1.6226,3.15989 5.47157,5.42026 5.47157,5.42026z" fill="#211e24" stroke="none" stroke-width="0" stroke-linecap="butt"/><path d="M367.90418,109.46227c0,0 -6.13756,-16.13175 -1.08754,-16.13175c1.4114,0 4.93871,-0.72099 8.03363,-1.80188c2.00232,-0.6993 3.2967,-1.68416 5.49649,-1.83727c7.45326,-0.51878 16.01545,-1.42412 25.83532,-0.52859c1.31791,0.12019 2.18743,1.43421 3.62058,2.04207c1.63184,0.69213 3.83321,0.68368 5.40509,0.76049c19.80972,0.96783 6.43872,17.49694 6.43872,17.49694c0,0 -5.65944,11.17953 -7.34096,26.27333c-1.6366,14.69058 1.66405,41.24559 -2.18547,56.65362c-1.8236,7.29911 1.01676,18.83744 -2.10066,23.89913c-4.002,6.49798 -24.08874,7.50151 -29.1465,-1.26043c-2.41881,-4.19029 0.36626,-15.72334 -1.10214,-21.9082c-3.11583,-13.12375 -3.7134,-40.68372 -4.93335,-53.94874c-1.64189,-17.8531 -6.93322,-29.7087 -6.93322,-29.7087z" fill="#211e24" stroke="none" stroke-width="0" stroke-linecap="butt"/><path d="M355.61884,110.10386c0,0 -8.43539,-14.75204 -4.17081,-22.64152c4.68088,-8.65963 9.56081,5.16385 15.09436,5.16385c0.20688,0 3.31262,4.53457 3.13112,15.09896c-0.16433,9.56494 -3.56038,24.56503 -4.39893,36.59458c-0.23406,3.35774 -2.69601,7.91629 -2.91041,11.1232c-0.2191,3.27716 0.59783,6.66989 0.44937,9.62062c-0.61478,12.21927 -1.7483,20.86842 -2.50255,22.11299c-1.85814,3.06606 -10.07371,7.36499 -13.55073,-0.45533c-0.79314,-1.78389 -0.4343,-15.96684 0.92867,-32.30591c0.25574,-3.06566 -0.41128,-6.92578 -0.00278,-10.01331c0.23314,-1.7621 1.98899,-3.51613 2.27943,-5.24591c2.60222,-15.49863 5.65325,-29.0522 5.65325,-29.0522z" fill="#211e24" stroke="none" stroke-width="0" stroke-linecap="butt"/><path d="M345.44251,212.97132c-1.92813,-8.4657 0.13247,-12.29398 -0.83337,-18.13835c-0.85803,-5.192 -3.50927,-9.20965 -3.25754,-10.09291c0.88509,-3.1054 3.1009,-5.53017 5.07484,-8.04332c3.25788,-4.1478 6.63813,-7.36453 8.05152,-5.63643c0.76171,0.9313 5.20873,-1.99899 7.09704,6.80738c0.39575,1.84559 -1.46718,19.67845 -1.06478,21.75974c0.56082,2.90075 -1.3582,14.30444 -0.68166,17.51849c0.66204,3.14515 3.58902,12.75732 5.09319,22.20468c0.29201,1.83406 0.04114,3.01152 -0.57079,3.70652c-0.85096,0.96649 -3.53301,-4.21108 -5.29147,-4.64218c-0.87914,-0.21553 -0.67773,4.66391 -1.60038,4.27466c-3.45502,-1.45765 -6.78672,-3.72306 -6.78672,-3.72306c0,0 -4.54672,-22.9957 -5.22987,-25.99519z" data-paper-data="{&quot;index&quot;:null}" fill="#211e24" stroke="none" stroke-width="0" stroke-linecap="butt"/><path d="M351.39373,278.36431c0,0 -2.05604,-1.4209 -2.99847,-5.42518c-0.98257,-4.17479 -0.85321,-11 -0.85321,-14.0598c0,-1.97363 -0.46186,-11.91818 0.32,-14.38776c1.09139,-3.44726 3.07853,-6.45663 3.07853,-6.45663h6.11738c0,0 -2.14065,2.60489 -3.60436,5.90002c-1.22563,2.75917 -1.32035,13.32024 -1.69378,15.33952c-1.12265,6.07065 -0.3661,19.08983 -0.3661,19.08983z" fill="#211e24" stroke="none" stroke-width="0" stroke-linecap="butt"/><path d="M364.05211,279.22868c0,0 -2.37688,-0.77244 -4.4268,-4.339c-2.1372,-3.71843 -3.96823,-10.29472 -4.84467,-13.22631c-0.56532,-1.89094 -1.79856,-11.7201 -1.75683,-14.31016c0.05825,-3.61544 1.10015,-7.0679 1.10015,-7.0679l6.93212,-5.95406c0,0 -2.3759,7.31073 -2.83443,10.88707c-0.38396,2.99462 0.49262,13.5739 0.71323,15.61552c0.66323,6.13785 5.11722,18.39484 5.11722,18.39484z" fill="#211e24" stroke="none" stroke-width="0" stroke-linecap="butt"/><path d="M363.41584,247.76798c-0.28476,-1.28219 -0.69007,-3.39698 -1.76288,-5.01045c-1.2812,-1.92688 -4.55226,-6.22566 -4.55226,-6.22566l7.16487,1.78127c0,0 1.79168,1.63381 2.7116,3.73485c0.65902,1.50516 0.55443,3.31418 0.48391,4.63808c-0.10933,2.05249 0.2236,13.85597 -0.86464,16.84668c-1.04381,2.86856 -3.05962,4.21988 -3.05962,4.21988c0,0 0.7351,-16.12993 -0.12097,-19.98466z" data-paper-data="{&quot;index&quot;:null}" fill="#211e24" stroke="none" stroke-width="0" stroke-linecap="butt"/><path d="M439.68141,90.06792c0.75247,1.28733 1.85066,2.97679 1.47289,4.92268c-0.67709,3.48758 -3.68952,7.7989 -4.82791,12.0952c-1.27733,4.82066 -1.44957,16.01019 -0.3408,29.36107c0.16122,1.94125 2.64286,4.38028 2.85336,6.40105c0.21882,2.10056 -0.5559,6.89133 -0.49825,8.94347c0.21472,7.64245 0.31078,12.2915 -0.83435,19.84157c-3.89305,25.66759 -7.28872,6.91432 -11.28686,2.08961c-0.67374,-0.81304 -2.13127,-10.40931 -3.28224,-23.23095c-0.21698,-2.4171 1.32508,-7.13401 0.98407,-9.55173c-3.17836,-22.53452 -9.25808,-46.45777 -8.98186,-47.71494c0.51696,-2.35287 5.25894,-1.47604 10.51762,-2.43863c3.25978,-0.59669 7.83417,-3.12788 8.35128,-3.86354c1.47284,-2.09533 4.46135,0.72995 5.87306,3.14514z" fill="#211e24" stroke="none" stroke-width="0" stroke-linecap="butt"/><path d="M440.05925,212.43995c-0.68315,2.99949 -4.39654,21.99519 -4.39654,21.99519c0,0 -3.33171,2.26542 -6.78673,3.72307c-0.92264,0.38925 -0.72124,-4.49019 -1.60037,-4.27466c-1.75846,0.4311 -4.44051,5.60868 -5.29147,4.64219c-0.61193,-0.69501 -0.8628,-1.87247 -0.57079,-3.70652c1.50417,-9.44736 4.43114,-19.05953 5.09318,-22.20468c0.67654,-3.21404 -1.24248,-14.61775 -0.68166,-17.5185c0.4024,-2.08129 -1.46053,-19.91415 -1.06478,-21.75974c1.88831,-8.80637 6.33533,-5.87608 7.09704,-6.80738c1.41339,-1.7281 4.29364,1.82197 7.55152,5.96976c1.97394,2.51315 4.35641,4.27125 5.2415,7.37665c0.25174,0.88326 -2.73283,6.40091 -3.59087,11.59292c-0.96584,5.84437 1.76142,8.50598 -0.1667,16.97168z" data-paper-data="{&quot;index&quot;:null}" fill="#211e24" stroke="none" stroke-width="0" stroke-linecap="butt"/><path d="M434.75621,252.93053c-0.37343,-2.01928 -0.46815,-12.58034 -1.69378,-15.33952c-1.46371,-3.29513 -3.60436,-5.90002 -3.60436,-5.90002h6.11738c0,0 1.98714,3.00937 3.07854,6.45663c0.78186,2.46958 0.32,12.41414 0.32,14.38777c0,3.0598 0.12937,9.88501 -0.85321,14.0598c-0.94244,4.00428 -2.99847,5.42518 -2.99847,5.42518c0,0 0.75655,-13.01919 -0.3661,-19.08984z" data-paper-data="{&quot;index&quot;:null}" fill="#211e24" stroke="none" stroke-width="0" stroke-linecap="butt"/><path d="M422.46392,272.88473c0,0 4.45399,-12.25698 5.11722,-18.39483c0.22062,-2.04163 1.09719,-12.62091 0.71323,-15.61553c-0.45853,-3.57633 -2.83442,-10.88706 -2.83442,-10.88706l6.93211,5.95405c0,0 1.04189,3.45246 1.10014,7.0679c0.04173,2.59006 -1.1915,12.41922 -1.75682,14.31016c-0.87644,2.93158 -2.70746,9.50788 -4.84467,13.2263c-2.04992,3.56656 -4.42681,4.339 -4.42681,4.339z" data-paper-data="{&quot;index&quot;:null}" fill="#211e24" stroke="none" stroke-width="0" stroke-linecap="butt"/><path d="M423.10018,241.42403c-0.85607,3.85473 -0.12097,19.98466 -0.12097,19.98466c0,0 -2.01581,-1.35131 -3.05962,-4.21988c-1.08824,-2.99071 -0.75532,-14.7942 -0.86464,-16.84668c-0.07052,-1.3239 -0.17511,-3.13292 0.48391,-4.63808c0.91993,-2.10103 2.7116,-3.73485 2.7116,-3.73485l7.16488,-1.78127c0,0 -3.27107,4.29878 -4.55227,6.22566c-1.0728,1.61346 -1.47812,3.72825 -1.76288,5.01045z" data-paper-data="{&quot;index&quot;:null}" fill="#211e24" stroke="none" stroke-width="0" stroke-linecap="butt"/><path d="M375.01632,256.27822c-0.85803,-8.45178 -2.14985,-25.86723 -1.89812,-27.30504c0.88509,-5.05511 4.00717,-19.8776 5.98112,-23.96861c3.25788,-6.75197 4.37243,9.76235 5.78582,12.57543c0.76171,1.51602 5.20873,-3.25404 7.09704,11.08137c0.39575,3.00433 -1.46718,32.03348 -1.06479,35.42149c0.56082,4.72197 -1.3582,23.28544 -0.68166,28.5174c0.66204,5.11982 3.58902,20.76694 5.09319,36.14578c0.29201,2.98557 0.04114,4.90229 -0.5708,6.03365c-0.85096,1.5733 -5.9692,0.03538 -6.89184,-0.59827c-3.45502,-2.37282 -6.78673,-6.06058 -6.78673,-6.06058c0,0 -5.04672,-37.43345 -5.72987,-42.31616c0,0 1.14796,-7.18168 1.19146,-13.09274c0.04645,-6.31023 -1.02614,-11.52149 -1.52483,-16.43373z" data-paper-data="{&quot;index&quot;:null}" fill="#211e24" stroke="none" stroke-width="0" stroke-linecap="butt"/><path d="M348.83482,343.47182c0,0 0.41893,-2.46389 3.64983,-5.01021c3.36848,-2.65474 9.60899,-5.42176 12.38215,-6.7148c1.78874,-0.83403 10.60653,-5.45508 13.17517,-5.79008c3.58554,-0.46762 7.15274,0.06164 7.15274,0.06164l2.58513,5.54431c0,0 -3.26548,-0.83932 -6.87048,-0.77342c-3.01864,0.05518 -12.63038,4.43233 -14.6183,4.94721c-5.97638,1.54791 -17.45624,7.73535 -17.45624,7.73535z" fill="#211e24" stroke="none" stroke-width="0" stroke-linecap="butt"/><path d="M353.40072,355.30965c0,0 -0.30437,-2.48065 2.0618,-5.84572c2.46693,-3.50836 7.6534,-7.94693 9.93999,-9.98011c1.4749,-1.31145 9.86213,-6.58285 12.22719,-7.63957c3.30138,-1.47505 6.8707,-1.98973 6.8707,-1.98973l8.32572,3.7666c0,0 -7.62989,0.93611 -11.06497,2.03186c-2.87634,0.91751 -12.09414,6.18265 -13.85128,7.24536c-5.28259,3.19488 -14.50915,12.41131 -14.50915,12.41131z" fill="#211e24" stroke="none" stroke-width="0" stroke-linecap="butt"/><path d="M413.24419,272.71195c0.04351,5.91105 1.19146,13.09274 1.19146,13.09274c-0.33891,2.42226 -2.7517,13.52207 -4.08949,23.42174c-1.35888,10.05575 -1.64038,18.89441 -1.64038,18.89441c0,0 -3.33171,3.68775 -6.78673,6.06057c-0.92264,0.63365 -6.04089,2.17157 -6.89185,0.59827c-0.61193,-1.13137 -0.8628,-3.04807 -0.57079,-6.03364c1.50417,-15.37885 3.76449,-29.52597 4.42652,-34.64578c0.1746,-1.35019 -0.36761,-3.80741 -0.12694,-6.89903c0.30725,-3.94698 1.36559,-8.82296 1.16085,-12.61752c-0.25631,-4.7506 -2.28023,-9.55318 -2.0489,-11.50086c0.18556,-1.56238 0.60205,-8.69825 0.49697,-15.87032c-0.12278,-8.38053 -0.775,-16.93229 -0.56176,-18.55117c1.88831,-14.33541 6.33533,-9.56535 7.09704,-11.08137c1.41339,-2.81308 2.52794,-19.3274 5.78582,-12.57543c1.97394,4.09101 5.09603,18.91351 5.98112,23.96862c0.25173,1.43781 -1.70676,16.01993 -2.56479,24.47171c-0.31203,3.07354 1.31794,7.76415 0.97125,11.26777c-0.2074,2.09598 -1.8468,5.63731 -1.82941,7.99928z" data-paper-data="{&quot;index&quot;:null}" fill="#211e24" stroke="none" stroke-width="0" stroke-linecap="butt"/><path d="M423.49429,335.73647c-1.98792,-0.51488 -11.59967,-4.89202 -14.6183,-4.94721c-3.605,-0.0659 -6.87049,0.77342 -6.87049,0.77342l2.58514,-5.54431c0,0 3.5672,-0.52927 7.15274,-0.06164c2.56864,0.33499 11.38643,4.95605 13.17517,5.79008c2.77316,1.29303 9.01367,4.06005 12.38215,6.7148c3.2309,2.54632 3.64983,5.01021 3.64983,5.01021c0,0 -11.47985,-6.18744 -17.45623,-7.73535z" data-paper-data="{&quot;index&quot;:null}" fill="#211e24" stroke="none" stroke-width="0" stroke-linecap="butt"/><path d="M436.38463,355.30965c0,0 -9.22656,-9.21642 -14.50915,-12.41131c-1.75714,-1.06272 -10.97494,-6.32786 -13.85128,-7.24536c-3.43508,-1.09575 -11.06498,-2.03186 -11.06498,-2.03186l8.32572,-3.76661c0,0 3.56932,0.51468 6.8707,1.98973c2.36506,1.05671 10.75229,6.32812 12.22719,7.63957c2.28659,2.03319 7.47305,6.47175 9.93998,9.98011c2.36617,3.36507 2.06181,5.84572 2.06181,5.84572z" data-paper-data="{&quot;index&quot;:null}" fill="#211e24" stroke="none" stroke-width="0" stroke-linecap="butt"/><path d="M384.42184,232.71414v-27.5h20v27.5c0,0 -2.26621,-1.35143 -4.25121,-4.10574c-1.01865,-1.41344 -1.77094,-3.58734 -2.6472,-4.95915c-0.71877,-1.12526 -1.57548,-1.60178 -2.26825,-1.60178c-0.55646,0 -1.80361,0.45687 -2.4218,1.54445c-0.95551,1.68103 -1.33443,4.40584 -2.52066,5.68791c-2.81881,3.04655 -5.89088,3.4343 -5.89088,3.4343z" fill="#211e24" stroke="none" stroke-width="0" stroke-linecap="butt"/><path d="M356.06869,24.90356c0.29706,-0.64294 2.52477,-0.31419 3.14931,-0.77985c0.85837,-0.64002 1.67001,-1.87323 2.24771,-2.62453c0.76048,-0.989 -0.39907,-2.57777 0.5137,-3.43218c5.56305,-5.20736 13.81271,-7.90032 23.02063,-7.90032c2.67702,0 6.67118,0.50725 9.70614,1.19383c3.15122,0.71288 5.29439,1.60608 5.29439,1.60608l0.97714,2.74644l5.19273,0.78859c0,0 2.25421,0.677 3.97691,3.23031c2.65202,3.93071 5.18603,10.93823 5.18603,16.10141c0,3.1925 -0.32739,8.64706 -1.72558,13.50702c-1.55575,5.4076 -4.19915,10.07904 -4.19915,10.07904l-3.48388,0.33965c0,0 0.7968,4.90346 0.24756,5.82576c-4.16636,6.99632 -8.49688,11.10066 -14.44376,13.44948c-1.85507,0.73269 -4.77013,2.79905 -6.72852,2.79905c-1.23048,0 -3.63598,-0.45682 -3.63598,-0.45682l-1.31131,-2.13077l-4.2476,-0.33223c0,0 -3.86965,-1.56785 -7.14937,-6.05621c-5.22615,-7.15208 -11.00658,-19.41106 -12.75369,-27.11171c-0.09782,-0.43115 0.67421,-1.06811 1.02826,-1.74592c0.54194,-1.03753 0.27607,-2.00412 0.1701,-2.64149c-0.14571,-0.87643 -2.09913,-0.57089 -2.19261,-1.41273c-0.15912,-1.4331 -0.24113,-2.81033 -0.24113,-4.11212c0,-11.25264 -0.03918,-7.81059 1.40197,-10.92977z" fill="#dacdc3" stroke="#c2b2ad" stroke-width="1.5" stroke-linecap="butt"/><path d="M403.18719,39.6339c-0.61833,4.32831 -3.88968,7.44137 -7.30677,6.95322c-3.41709,-0.48816 -5.68593,-4.39267 -5.0676,-8.72098c0.61833,-4.32831 3.88968,-7.44137 7.30677,-6.95321c3.41709,0.48816 5.68593,4.39267 5.0676,8.72098z" fill="#321600" stroke="none" stroke-width="0" stroke-linecap="butt"/><path d="M405.05953,16.97619l-12,46.5" fill="none" stroke="#c2b2ad" stroke-width="2.5" stroke-linecap="round"/><path d="M398.89286,56.47619l9.83333,-37.5" fill="none" stroke="#c2b2ad" stroke-width="2.5" stroke-linecap="round"/><path d="M413.72619,30.64287l-20.5,-12" fill="none" stroke="#c2b2ad" stroke-width="2.5" stroke-linecap="round"/><path d="M391.39286,23.80954l23.30953,12.42857" fill="none" stroke="#c2b2ad" stroke-width="2.5" stroke-linecap="round"/><path d="M397.70238,45.40477l2.92857,-11.57143" fill="none" stroke="#622b00" stroke-width="3" stroke-linecap="round"/><path d="M359.95238,55.9762l18.28571,12.42857" fill="none" stroke="#c2b2ad" stroke-width="2.5" stroke-linecap="round"/><path d="M363.2381,62.54762l15.28572,10.28572" fill="none" stroke="#c2b2ad" stroke-width="2.5" stroke-linecap="round"/><path d="M372.38095,16.97619c-2.09745,1.01377 -6.42857,-1.42857 -6.42857,-1.42857c0,0 6.49217,-3.30801 9.8995,-4.10452c3.86755,-0.9041 12.1005,-1.03834 12.1005,-1.03834c0,0 -13.47397,5.55766 -15.57143,6.57143z" fill="#c2b2ad" stroke="none" stroke-width="0" stroke-linecap="butt"/><path d="M393.2381,78.26192c0,0 0.58263,-3.16868 2,-4.42857c1.41737,-1.25989 9.57143,-5.85715 9.57143,-5.85715c0,0 -2.40274,4.11989 -4.32611,5.82955c-1.93372,1.71886 -7.24532,4.45616 -7.24532,4.45616z" fill="#c2b2ad" stroke="none" stroke-width="0" stroke-linecap="butt"/><path d="M363.09524,63.40477c0,0 -2.66598,-5.06208 -3.75454,-7.84137c-1.14653,-2.92731 -2.95975,-9.30148 -2.95975,-9.30148c0,0 4.64403,3.42706 5.71429,6.71428c1.07026,3.28723 1,10.42857 1,10.42857z" fill="#c2b2ad" stroke="none" stroke-width="0" stroke-linecap="butt"/><path d="M372.52381,76.69049c0,0 1.94093,-1.55294 4,-1.42857c0.89831,0.05426 3.16,2.57779 6.713,3.15081c2.13198,0.34384 3.56387,-0.58295 5.55735,-0.7562c2.29929,-0.19983 5.01537,0.31967 5.01537,0.31967c0,0 -2.26247,1.58692 -5.28039,2.72835c-2.11757,0.80091 -4.89716,1.23745 -6.28052,1.37636c-2.62636,0.26372 -0.74948,-2.90258 -3.02818,-2.80568c-1.03084,0.04384 -1.34669,0.05383 -1.99267,0.01481c-2.89326,-0.17476 -4.70396,-2.59957 -4.70396,-2.59957z" fill="#c2b2ad" stroke="none" stroke-width="0" stroke-linecap="butt"/><path d="M379.1627,34.27844c0.77176,4.63055 -1.43636,8.85664 -4.93197,9.43925c-3.49561,0.5826 -6.95499,-2.69891 -7.72675,-7.32945c-0.77176,-4.63055 1.43637,-8.85664 4.93197,-9.43924c3.49561,-0.5826 6.95499,2.69891 7.72675,7.32945z" fill="#321600" stroke="none" stroke-width="0" stroke-linecap="butt"/><path d="M369.80953,20.97619c-2.94851,1.23647 -8.0154,3.44107 -9.09034,2.8599c-0.80569,-0.4356 0.29242,-1.24809 0.9528,-2.31859c0.79629,-1.2908 0.70897,-3.25559 0.70897,-3.25559c0,0 4.64457,-3.68505 7.20683,-4.75955c3.19971,-1.34181 10.50746,-2.66903 10.50746,-2.66903c0,0 0.06889,2.0192 -1.52758,3.38518c-1.19067,1.01877 -3.94164,1.23042 -4.92991,2.356c-1.60478,1.82775 -0.62401,3.05797 -3.82823,4.40168z" fill="#c37c70" stroke="none" stroke-width="0" stroke-linecap="butt"/><path d="M406.19048,65.35715c0,0 -4.83505,-4.73303 -3.85714,-7.14286c0.28616,-0.7052 0.29913,-2.20942 1.75054,-3.46093c0.81765,-0.70504 2.87197,-0.84226 3.77461,-1.90763c1.3428,-1.58487 1.96365,-2.35783 3.02365,-3.98152c1.28487,-1.96814 3.30834,-3.22135 3.30834,-3.22135c0,0 -0.91784,4.11458 -1.64024,6.1689c-0.79453,2.25946 -2.93118,6.8311 -2.93118,6.8311l-4.04064,0.56822z" fill="#c37c70" stroke="none" stroke-width="0" stroke-linecap="butt"/><path d="M408.39377,49.82093c0.18953,0.60206 -0.41941,2.04447 -1.36012,2.34062c-0.94071,0.29615 -3.42838,1.47674 -3.61791,0.87468c-0.11878,-0.37732 0.92805,-0.68163 1.53108,-1.35574c0.35917,-0.40149 0.19219,-1.3029 0.54333,-1.41345c0.94071,-0.29615 2.7141,-1.04817 2.90363,-0.44611z" fill="#c37c70" stroke="none" stroke-width="0" stroke-linecap="butt"/><path d="M167,166.69035c0,0 0.19889,-10.33088 0.65885,-14.10258c0.32753,-2.68578 1.84115,-6.39742 1.84115,-6.39742" fill="none" stroke="#37323c" stroke-width="2.5" stroke-linecap="round"/><path d="M163,192.69035c0,0 -2.70419,-9.79507 -3.04462,-15.49734c-0.1284,-2.15065 1.50695,-5.405 1.71799,-8.55799c0.32408,-4.84184 -0.67337,-9.44467 -0.67337,-9.44467" fill="none" stroke="#37323c" stroke-width="2.5" stroke-linecap="round"/><path d="M143.5,103.19035c0,0 1.68416,4.76294 2.35782,7.75699c0.80338,3.57057 2.14218,12.24301 2.14218,12.24301" fill="none" stroke="#37323c" stroke-width="2.5" stroke-linecap="round"/><path d="M404.5,173.69035c0,0 0.19888,-10.33088 0.65885,-14.10258c0.32754,-2.68577 1.84115,-6.39742 1.84115,-6.39742" fill="none" stroke="#37323c" stroke-width="2.5" stroke-linecap="round"/><path d="M400.5,199.69035c0,0 -2.70417,-9.79507 -3.04461,-15.49734c-0.1284,-2.15066 1.50695,-5.405 1.71798,-8.55799c0.32408,-4.84184 -0.67337,-9.44467 -0.67337,-9.44467" fill="none" stroke="#37323c" stroke-width="2.5" stroke-linecap="round"/><path d="M381,110.19035c0,0 1.68417,4.76295 2.35782,7.75699c0.80338,3.57057 2.14218,12.24301 2.14218,12.24301" fill="none" stroke="#37323c" stroke-width="2.5" stroke-linecap="round"/></g></g></svg>