<svg version="1.1" xmlns="http://www.w3.org/2000/svg" xmlns:xlink="http://www.w3.org/1999/xlink" width="350.12061" height="348.6193" viewBox="0,0,350.12061,348.6193"><g transform="translate(-90.73723,-5.69035)"><g data-paper-data="{&quot;isPaintingLayer&quot;:true}" fill-rule="nonzero" stroke-linejoin="miter" stroke-miterlimit="10" stroke-dasharray="" stroke-dashoffset="0" style="mix-blend-mode: normal"><path d="M161.38192,83.93235z" fill="#211e24" stroke="none" stroke-width="0" stroke-linecap="butt"/><path d="M170.59575,37.04756c0,6.37329 -0.16073,6.40909 -1.66157,8.31391c-1.24565,1.58093 -3.35802,5.2389 -7.58114,7.68898c-1.32533,0.7689 -4.40851,3.52903 -5.10922,6.86651c-0.92534,4.40732 -1.08011,9.32413 -3.2324,11.0222c-0.97738,0.77111 -1.36646,3.27597 -6.11193,4.69579c-3.84974,1.15183 -9.4542,1.34168 -11.73921,1.28887c-5.10169,-0.11792 -6.85009,-3.68767 -10.43012,-6.69705c-1.99952,-1.68079 -1.02024,-4.14522 -2.17707,-9.06987c-0.53832,-2.29163 -3.43951,-7.87762 -4.61315,-8.87309c-3.72621,-3.16056 -4.71358,-5.92052 -6.12895,-8.51469c-0.91043,-1.66868 -1.52456,-4.88619 -1.7018,-7.67722c-0.03485,-0.54879 -0.05281,-1.0811 -0.05281,-1.5819c0,-4.69062 1.9975,-8.92842 4.57701,-13.06668c1.02818,-1.64949 3.04856,-2.57127 4.21311,-4.12936c1.47231,-1.96985 2.11899,-4.52295 3.68096,-6.03548c5.54678,-5.37123 8.89144,-5.58813 17.16422,-5.58813c7.8186,0 12.60275,0.22722 18.04566,5.08498c2.81322,2.51078 3.44769,6.77629 5.71974,10.75014c2.92818,5.12143 7.13867,10.23764 7.13867,15.52213z" fill="#211e24" stroke="none" stroke-width="0" stroke-linecap="butt"/><path d="M120.9317,94.14308c0,0 2.0177,-1.4271 3.50887,-3.00961c1.88259,-1.99791 3.46417,-4.3512 5.085,-5.59294c1.85394,-1.42033 4.54713,-2.34407 4.83232,-3.93421c0.26977,-1.50419 -1.29129,-4.72216 -1.46067,-7.77407c-0.12353,-2.22577 1.2568,-4.19354 0.86284,-6.18033c-0.54771,-2.76217 -0.01606,-4.24395 -0.67944,-6.07076c-0.88348,-2.43296 -2.9049,-4.77672 -2.9049,-4.77672h24.46951c0,0 -1.99923,3.05715 -2.17164,8.36144c-0.08531,2.62448 1.57919,5.31301 2.13255,8.14047c0.3483,1.77972 -0.4003,4.05226 -0.24175,5.02464c0.33907,2.07961 -0.38508,5.91751 0.60946,7.85427c1.6226,3.15989 5.47157,5.42026 5.47157,5.42026z" fill="#211e24" stroke="none" stroke-width="0" stroke-linecap="butt"/><path d="M117.30659,108.46227c0,0 -6.13756,-16.13175 -1.08754,-16.13175c1.4114,0 4.93871,-0.72099 8.03363,-1.80188c2.00232,-0.6993 3.2967,-1.68416 5.49649,-1.83727c7.45326,-0.51878 16.01545,-1.42412 25.83532,-0.52859c1.31791,0.12019 2.18743,1.43421 3.62058,2.04207c1.63184,0.69213 3.83321,0.68368 5.40509,0.76049c19.80972,0.96783 6.43872,17.49694 6.43872,17.49694c0,0 -5.65944,11.17953 -7.34096,26.27333c-1.6366,14.69058 1.66405,41.24559 -2.18547,56.65362c-0.89261,3.57275 -2.548,9.11951 -2.32908,14.44543c0.22833,5.55492 2.31993,10.86959 0.72842,13.4537c-4.002,6.49798 -24.58874,3.50151 -29.6465,-5.26043c-2.41881,-4.19029 0.36626,-15.72334 -1.10214,-21.9082c-3.11583,-13.12375 -3.7134,-40.68372 -4.93335,-53.94874c-1.64189,-17.8531 -6.93322,-29.7087 -6.93322,-29.7087z" fill="#211e24" stroke="none" stroke-width="0" stroke-linecap="butt"/><path d="M105.02125,109.10386c0,0 -8.43539,-14.75204 -4.17081,-22.64152c4.68088,-8.65963 9.56081,5.16385 15.09436,5.16385c0.20688,0 3.31262,4.53457 3.13112,15.09896c-0.16433,9.56494 -3.56038,24.56503 -4.39893,36.59458c-0.23406,3.35774 -2.69601,7.91629 -2.91041,11.1232c-0.2191,3.27716 0.59783,6.66989 0.44937,9.62062c-0.61478,12.21927 -1.7483,20.86842 -2.50255,22.11299c-1.85814,3.06606 -10.07371,7.36499 -13.55073,-0.45533c-0.79314,-1.78389 -0.4343,-15.96684 0.92867,-32.30591c0.25574,-3.06566 -0.41128,-6.92578 -0.00278,-10.01331c0.23314,-1.7621 1.98899,-3.51613 2.27943,-5.24591c2.60222,-15.49863 5.65325,-29.0522 5.65325,-29.0522z" fill="#211e24" stroke="none" stroke-width="0" stroke-linecap="butt"/><path d="M94.84492,211.97132c-1.92813,-8.4657 0.13247,-12.29398 -0.83337,-18.13835c-0.85803,-5.192 -3.50927,-9.20965 -3.25754,-10.09291c0.88509,-3.1054 3.1009,-5.53017 5.07484,-8.04332c3.25788,-4.1478 6.63813,-7.36453 8.05152,-5.63643c0.76171,0.9313 5.20873,-1.99899 7.09704,6.80738c0.39575,1.84559 -1.46718,19.67845 -1.06478,21.75974c0.56082,2.90075 -1.3582,14.30444 -0.68166,17.51849c0.66204,3.14515 3.58902,12.75732 5.09319,22.20468c0.29201,1.83406 0.04114,3.01152 -0.57079,3.70652c-0.85096,0.96649 -3.53301,-4.21108 -5.29147,-4.64218c-0.87914,-0.21553 -0.67773,4.66391 -1.60038,4.27466c-3.45502,-1.45765 -6.78672,-3.72306 -6.78672,-3.72306c0,0 -4.54672,-22.9957 -5.22987,-25.99519z" data-paper-data="{&quot;index&quot;:null}" fill="#211e24" stroke="none" stroke-width="0" stroke-linecap="butt"/><path d="M100.79614,277.36431c0,0 -2.05604,-1.4209 -2.99847,-5.42518c-0.98257,-4.17479 -0.85321,-11 -0.85321,-14.0598c0,-1.97363 -0.46186,-11.91818 0.32,-14.38776c1.09139,-3.44726 3.07853,-6.45663 3.07853,-6.45663h6.11738c0,0 -2.14065,2.60489 -3.60436,5.90002c-1.22563,2.75917 -1.32035,13.32024 -1.69378,15.33952c-1.12265,6.07065 -0.3661,19.08983 -0.3661,19.08983z" fill="#211e24" stroke="none" stroke-width="0" stroke-linecap="butt"/><path d="M113.45452,278.22868c0,0 -2.37688,-0.77244 -4.4268,-4.339c-2.1372,-3.71843 -3.96823,-10.29472 -4.84467,-13.22631c-0.56532,-1.89094 -1.79856,-11.7201 -1.75683,-14.31016c0.05825,-3.61544 1.10015,-7.0679 1.10015,-7.0679l6.93212,-5.95406c0,0 -2.3759,7.31073 -2.83443,10.88707c-0.38396,2.99462 0.49262,13.5739 0.71323,15.61552c0.66323,6.13785 5.11722,18.39484 5.11722,18.39484z" fill="#211e24" stroke="none" stroke-width="0" stroke-linecap="butt"/><path d="M112.81825,246.76798c-0.28476,-1.28219 -0.69007,-3.39698 -1.76288,-5.01045c-1.2812,-1.92688 -4.55226,-6.22566 -4.55226,-6.22566l7.16487,1.78127c0,0 1.79168,1.63381 2.7116,3.73485c0.65902,1.50516 0.55443,3.31418 0.48391,4.63808c-0.10933,2.05249 0.2236,13.85597 -0.86464,16.84668c-1.04381,2.86856 -3.05962,4.21988 -3.05962,4.21988c0,0 0.7351,-16.12993 -0.12097,-19.98466z" data-paper-data="{&quot;index&quot;:null}" fill="#211e24" stroke="none" stroke-width="0" stroke-linecap="butt"/><path d="M191.6466,103.63839c-0.09253,1.48824 -0.12206,3.50304 -1.52006,4.90832c-2.50562,2.51863 -7.40943,4.41993 -10.74874,7.35304c-3.74687,3.29109 -10.12508,12.4864 -16.64397,24.19022c-0.94786,1.70176 -0.24633,5.10988 -1.19758,6.90514c-0.9888,1.86615 -4.30168,5.41249 -5.39733,7.14862c-4.08034,6.4656 -6.59118,10.37949 -11.7492,16.01063c-17.53547,19.14389 -9.90512,1.67982 -10.53651,-4.5543c-0.10639,-1.05054 4.03071,-9.83104 10.21965,-21.11892c1.16672,-2.12796 5.0756,-5.18539 6.13968,-7.38297c9.91783,-20.48275 18.20035,-43.73538 19.13025,-44.62536c1.74036,-1.66565 5.18929,1.70482 10.09225,3.83584c3.03927,1.321 8.24811,1.76821 9.08743,1.4455c2.39057,-0.91915 3.29775,3.09213 3.12415,5.88425z" fill="#211e24" stroke="none" stroke-width="0" stroke-linecap="butt"/><path d="M124.41873,255.27822c-0.85803,-8.45178 -2.14985,-25.86723 -1.89812,-27.30504c0.88509,-5.05511 4.00717,-19.8776 5.98112,-23.96861c3.25788,-6.75197 4.37243,9.76235 5.78582,12.57543c0.76171,1.51602 5.20873,-3.25404 7.09704,11.08137c0.39575,3.00433 -1.46718,32.03348 -1.06479,35.42149c0.56082,4.72197 -1.3582,23.28544 -0.68166,28.5174c0.66204,5.11982 3.58902,20.76694 5.09319,36.14578c0.29201,2.98557 0.04114,4.90229 -0.5708,6.03365c-0.85096,1.5733 -5.9692,0.03538 -6.89184,-0.59827c-3.45502,-2.37282 -6.78673,-6.06058 -6.78673,-6.06058c0,0 -5.04672,-37.43345 -5.72987,-42.31616c0,0 1.14796,-7.18168 1.19146,-13.09274c0.04645,-6.31023 -1.02614,-11.52149 -1.52483,-16.43373z" data-paper-data="{&quot;index&quot;:null}" fill="#211e24" stroke="none" stroke-width="0" stroke-linecap="butt"/><path d="M98.23723,342.47182c0,0 0.41893,-2.46389 3.64983,-5.01021c3.36848,-2.65474 9.60899,-5.42176 12.38215,-6.7148c1.78874,-0.83403 10.60653,-5.45508 13.17517,-5.79008c3.58554,-0.46762 7.15274,0.06164 7.15274,0.06164l2.58513,5.54431c0,0 -3.26548,-0.83932 -6.87048,-0.77342c-3.01864,0.05518 -12.63038,4.43233 -14.6183,4.94721c-5.97638,1.54791 -17.45624,7.73535 -17.45624,7.73535z" fill="#211e24" stroke="none" stroke-width="0" stroke-linecap="butt"/><path d="M102.80313,354.30965c0,0 -0.30437,-2.48065 2.0618,-5.84572c2.46693,-3.50836 7.6534,-7.94693 9.93999,-9.98011c1.4749,-1.31145 9.86213,-6.58285 12.22719,-7.63957c3.30138,-1.47505 6.8707,-1.98973 6.8707,-1.98973l8.32572,3.7666c0,0 -7.62989,0.93611 -11.06497,2.03186c-2.87634,0.91751 -12.09414,6.18265 -13.85128,7.24536c-5.28259,3.19488 -14.50915,12.41131 -14.50915,12.41131z" fill="#211e24" stroke="none" stroke-width="0" stroke-linecap="butt"/><path d="M185.85327,258.92843c3.08349,5.04326 7.76829,10.60628 7.76829,10.60628c0.95785,2.2505 4.61031,13.00628 8.56555,22.17957c4.0176,9.31792 8.33128,17.03759 8.33128,17.03759c0,0 -0.95478,4.87731 -2.69287,8.6913c-0.46414,1.0185 -4.05785,4.97412 -5.5979,4.06436c-1.10746,-0.65421 -2.3102,-2.16751 -3.59854,-4.87659c-6.6363,-13.95461 -11.98983,-27.24332 -14.06093,-31.97209c-0.54618,-1.24707 -2.27715,-3.07345 -3.66414,-5.84695c-1.77073,-3.54084 -3.37654,-8.26489 -5.50749,-11.41126c-2.66783,-3.93911 -6.87727,-7.01184 -7.68274,-8.80019c-0.64614,-1.43456 -3.96662,-7.76453 -7.75273,-13.85674c-4.42405,-7.11872 -9.39007,-14.11133 -10.0416,-15.60858c-5.76937,-13.25836 0.49987,-11.46222 0.37138,-13.15397c-0.23844,-3.13915 -7.79379,-17.86605 -1.52227,-13.75863c3.7999,2.48868 14.11413,13.58241 17.47774,17.45844c0.95669,1.10246 6.79306,14.60841 10.41329,22.29364c1.31652,2.79478 5.13064,5.97457 6.63909,9.15579c0.90241,1.90311 1.32246,5.78282 2.55458,7.79803z" data-paper-data="{&quot;index&quot;:null}" fill="#211e24" stroke="none" stroke-width="0" stroke-linecap="butt"/><path d="M227.11656,307.65722c-1.96896,0.58321 -12.4618,1.7854 -15.07717,3.29372c-3.12339,1.80133 -5.48933,4.20345 -5.48933,4.20345l-0.64178,-6.08362c0,0 2.78428,-2.2919 6.09803,-3.73892c2.37392,-1.03664 12.31206,-1.62063 14.27479,-1.82769c3.04291,-0.32102 9.81689,-1.16571 14.07173,-0.62654c4.08106,0.51714 5.70982,2.41277 5.70982,2.41277c0,0 -13.0267,0.61349 -18.94607,2.36683z" data-paper-data="{&quot;index&quot;:null}" fill="#211e24" stroke="none" stroke-width="0" stroke-linecap="butt"/><path d="M248.25025,317.78823c0,0 -12.65662,-3.14351 -18.83018,-3.15915c-2.05351,-0.00521 -12.66637,0.23295 -15.60417,0.92896c-3.5085,0.8312 -10.52963,3.96096 -10.52963,3.96096l5.19393,-7.51851c0,0 3.32409,-1.39834 6.91348,-1.83558c2.57139,-0.31323 12.47569,-0.11799 14.4155,0.24583c3.00736,0.56404 9.73945,1.69503 13.66158,3.43033c3.76193,1.66443 4.77948,3.94716 4.77948,3.94716z" data-paper-data="{&quot;index&quot;:null}" fill="#211e24" stroke="none" stroke-width="0" stroke-linecap="butt"/><path d="M133.82425,231.71414v-27.5h20v27.5c0,0 -2.26621,-1.35143 -4.25121,-4.10574c-1.01865,-1.41344 -1.77094,-3.58734 -2.6472,-4.95915c-0.71877,-1.12526 -1.57548,-1.60178 -2.26825,-1.60178c-0.55646,0 -1.80361,0.45687 -2.4218,1.54445c-0.95551,1.68103 -1.33443,4.40584 -2.52066,5.68791c-2.81881,3.04655 -5.89088,3.4343 -5.89088,3.4343z" fill="#211e24" stroke="none" stroke-width="0" stroke-linecap="butt"/><path d="M105.4711,23.90356c0.29706,-0.64294 2.52477,-0.31419 3.14931,-0.77985c0.85837,-0.64002 1.67001,-1.87323 2.24771,-2.62453c0.76048,-0.989 -0.39907,-2.57777 0.5137,-3.43218c5.56305,-5.20736 13.81271,-7.90032 23.02063,-7.90032c2.67702,0 6.67118,0.50725 9.70614,1.19383c3.15122,0.71288 5.29439,1.60608 5.29439,1.60608l0.97714,2.74644l5.19273,0.78859c0,0 2.25421,0.677 3.97691,3.23031c2.65202,3.93071 5.18603,10.93823 5.18603,16.10141c0,3.1925 -0.32739,8.64706 -1.72558,13.50702c-1.55575,5.4076 -4.19915,10.07904 -4.19915,10.07904l-3.48388,0.33965c0,0 0.7968,4.90346 0.24756,5.82576c-4.16636,6.99632 -8.49688,11.10066 -14.44376,13.44948c-1.85507,0.73269 -4.77013,2.79905 -6.72852,2.79905c-1.23048,0 -3.63598,-0.45682 -3.63598,-0.45682l-1.31131,-2.13077l-4.2476,-0.33223c0,0 -3.86965,-1.56785 -7.14937,-6.05621c-5.22615,-7.15208 -11.00658,-19.41106 -12.75369,-27.11171c-0.09782,-0.43115 0.67421,-1.06811 1.02826,-1.74592c0.54194,-1.03753 0.27607,-2.00412 0.1701,-2.64149c-0.14571,-0.87643 -2.09913,-0.57089 -2.19261,-1.41273c-0.15912,-1.4331 -0.24113,-2.81033 -0.24113,-4.11212c0,-11.25264 -0.03918,-7.81059 1.40197,-10.92977z" fill="#dacdc3" stroke="#c2b2ad" stroke-width="1.5" stroke-linecap="butt"/><path d="M152.5896,38.6339c-0.61833,4.32831 -3.88968,7.44137 -7.30677,6.95322c-3.41709,-0.48816 -5.68593,-4.39267 -5.0676,-8.72098c0.61833,-4.32831 3.88968,-7.44137 7.30677,-6.95321c3.41709,0.48816 5.68593,4.39267 5.0676,8.72098z" fill="#321600" stroke="none" stroke-width="0" stroke-linecap="butt"/><path d="M154.46194,15.97619l-12,46.5" fill="none" stroke="#c2b2ad" stroke-width="2.5" stroke-linecap="round"/><path d="M148.29527,55.47619l9.83333,-37.5" fill="none" stroke="#c2b2ad" stroke-width="2.5" stroke-linecap="round"/><path d="M142.6286,17.64287l20.5,12" fill="none" stroke="#c2b2ad" stroke-width="2.5" stroke-linecap="round"/><path d="M164.1048,35.23811l-23.30953,-12.42857" fill="none" stroke="#c2b2ad" stroke-width="2.5" stroke-linecap="round"/><path d="M150.03336,32.83334l-2.92857,11.57143" fill="none" stroke="#622b00" stroke-width="3" stroke-linecap="round"/><path d="M109.35479,54.9762l18.28571,12.42857" fill="none" stroke="#c2b2ad" stroke-width="2.5" stroke-linecap="round"/><path d="M127.92623,71.83334l-15.28572,-10.28572" fill="none" stroke="#c2b2ad" stroke-width="2.5" stroke-linecap="round"/><path d="M121.78336,15.97619c-2.09745,1.01377 -6.42857,-1.42857 -6.42857,-1.42857c0,0 6.49217,-3.30801 9.8995,-4.10452c3.86755,-0.9041 12.1005,-1.03834 12.1005,-1.03834c0,0 -13.47397,5.55766 -15.57143,6.57143z" fill="#c2b2ad" stroke="none" stroke-width="0" stroke-linecap="butt"/><path d="M142.64051,77.26192c0,0 0.58263,-3.16868 2,-4.42857c1.41737,-1.25989 9.57143,-5.85715 9.57143,-5.85715c0,0 -2.40274,4.11989 -4.32611,5.82955c-1.93372,1.71886 -7.24532,4.45616 -7.24532,4.45616z" fill="#c2b2ad" stroke="none" stroke-width="0" stroke-linecap="butt"/><path d="M112.49765,62.40477c0,0 -2.66598,-5.06208 -3.75454,-7.84137c-1.14653,-2.92731 -2.95975,-9.30148 -2.95975,-9.30148c0,0 4.64403,3.42706 5.71429,6.71428c1.07026,3.28723 1,10.42857 1,10.42857z" fill="#c2b2ad" stroke="none" stroke-width="0" stroke-linecap="butt"/><path d="M121.92622,75.69049c0,0 1.94093,-1.55294 4,-1.42857c0.89831,0.05426 3.16,2.57779 6.713,3.15081c2.13198,0.34384 3.56387,-0.58295 5.55735,-0.7562c2.29929,-0.19983 5.01537,0.31967 5.01537,0.31967c0,0 -2.26247,1.58692 -5.28039,2.72835c-2.11757,0.80091 -4.89716,1.23745 -6.28052,1.37636c-2.62636,0.26372 -0.74948,-2.90258 -3.02818,-2.80568c-1.03084,0.04384 -1.34669,0.05383 -1.99267,0.01481c-2.89326,-0.17476 -4.70396,-2.59957 -4.70396,-2.59957z" fill="#c2b2ad" stroke="none" stroke-width="0" stroke-linecap="butt"/><path d="M128.56511,33.27844c0.77176,4.63055 -1.43636,8.85664 -4.93197,9.43925c-3.49561,0.5826 -6.95499,-2.69891 -7.72675,-7.32945c-0.77176,-4.63055 1.43637,-8.85664 4.93197,-9.43924c3.49561,-0.5826 6.95499,2.69891 7.72675,7.32945z" fill="#321600" stroke="none" stroke-width="0" stroke-linecap="butt"/><path d="M119.21194,19.97619c-2.94851,1.23647 -8.0154,3.44107 -9.09034,2.8599c-0.80569,-0.4356 0.29242,-1.24809 0.9528,-2.31859c0.79629,-1.2908 0.70897,-3.25559 0.70897,-3.25559c0,0 4.64457,-3.68505 7.20683,-4.75955c3.19971,-1.34181 10.50746,-2.66903 10.50746,-2.66903c0,0 0.06889,2.0192 -1.52758,3.38518c-1.19067,1.01877 -3.94164,1.23042 -4.92991,2.356c-1.60478,1.82775 -0.62401,3.05797 -3.82823,4.40168z" fill="#c37c70" stroke="none" stroke-width="0" stroke-linecap="butt"/><path d="M155.59289,64.35715c0,0 -4.83505,-4.73303 -3.85714,-7.14286c0.28616,-0.7052 0.29913,-2.20942 1.75054,-3.46093c0.81765,-0.70504 2.87197,-0.84226 3.77461,-1.90763c1.3428,-1.58487 1.96365,-2.35783 3.02365,-3.98152c1.28487,-1.96814 3.30834,-3.22135 3.30834,-3.22135c0,0 -0.91784,4.11458 -1.64024,6.1689c-0.79453,2.25946 -2.93118,6.8311 -2.93118,6.8311l-4.04064,0.56822z" fill="#c37c70" stroke="none" stroke-width="0" stroke-linecap="butt"/><path d="M157.79618,48.82093c0.18953,0.60206 -0.41941,2.04447 -1.36012,2.34062c-0.94071,0.29615 -3.42838,1.47674 -3.61791,0.87468c-0.11878,-0.37732 0.92805,-0.68163 1.53108,-1.35574c0.35917,-0.40149 0.19219,-1.3029 0.54333,-1.41345c0.94071,-0.29615 2.7141,-1.04817 2.90363,-0.44611z" fill="#c37c70" stroke="none" stroke-width="0" stroke-linecap="butt"/><path d="M153.90241,172.69035c0,0 0.19888,-10.33088 0.65885,-14.10258c0.32754,-2.68577 1.84115,-6.39742 1.84115,-6.39742" fill="none" stroke="#37323c" stroke-width="2.5" stroke-linecap="round"/><path d="M149.90241,198.69035c0,0 -2.70417,-9.79507 -3.04461,-15.49734c-0.1284,-2.15066 1.50695,-5.405 1.71798,-8.55799c0.32408,-4.84184 -0.67337,-9.44467 -0.67337,-9.44467" fill="none" stroke="#37323c" stroke-width="2.5" stroke-linecap="round"/><path d="M130.40241,109.19035c0,0 1.68417,4.76295 2.35782,7.75699c0.80338,3.57057 2.14218,12.24301 2.14218,12.24301" fill="none" stroke="#37323c" stroke-width="2.5" stroke-linecap="round"/><g fill="#211e24" stroke="none" stroke-width="0" stroke-linecap="butt"><path d="M133.89362,109.4641c0.24235,-3.06674 1.17057,-22.39973 1.17057,-22.39973c0,0 2.96921,-2.72328 6.1772,-4.6651c0.85667,-0.51854 1.3628,4.33875 2.20153,3.99839c1.67766,-0.68079 3.58303,-6.19171 4.56478,-5.3584c0.70598,0.59924 1.12443,1.72807 1.10063,3.58507c-0.12259,9.56557 -1.62921,19.49991 -1.82961,22.70773c-0.20479,3.27808 3.34267,14.28457 3.2071,17.23592c-0.09729,2.1176 4.32412,19.49381 4.19934,21.37722c-0.59536,8.98685 -5.41929,6.73023 -6.03836,7.76187c-1.14872,1.91428 -4.51193,-1.18211 -8.33522,-4.81535c-2.31652,-2.20138 -4.92813,-3.59659 -6.25286,-6.54141c-0.37679,-0.83759 1.77876,-6.72875 1.87719,-11.99026c0.11079,-5.9226 -2.9726,-8.16198 -2.2886,-16.81749z" data-paper-data="{&quot;index&quot;:null}"/><path d="M133.28735,68.63223c0.66143,1.94408 2.28194,12.3805 3.89358,14.93351c1.9247,3.04891 4.41944,5.31697 4.41944,5.31697l-6.05312,0.88437c0,0 -2.40132,-2.69048 -3.97962,-5.94375c-1.13067,-2.33061 -2.11131,-12.23747 -2.39664,-14.19037c-0.44235,-3.02766 -1.55706,-9.76247 -1.18834,-14.03545c0.35365,-4.09846 2.18267,-5.80167 2.18267,-5.80167c0,0 1.13354,12.9918 3.12202,18.83638z" data-paper-data="{&quot;index&quot;:null}"/><path d="M142.56578,47.11059c0,0 -2.63525,12.77212 -2.40418,18.94137c0.07685,2.05208 0.7389,12.64694 1.55175,15.5546c0.97073,3.47247 4.37855,10.36293 4.37855,10.36293l-7.72005,-4.88935c0,0 -1.53006,-3.26557 -2.11037,-6.83461c-0.41573,-2.55682 -0.61643,-12.46101 -0.33041,-14.41381c0.44342,-3.02749 1.30449,-9.79941 2.88169,-13.78774c1.51278,-3.82544 3.75303,-4.93339 3.75303,-4.93339z" data-paper-data="{&quot;index&quot;:null}"/><path d="M146.48439,78.33278c0.28981,-3.938 -2.76942,-19.79221 -2.76942,-19.79221c0,0 2.18999,1.04569 3.63753,3.73323c1.50917,2.80197 2.88614,14.52959 3.29103,16.54471c0.26117,1.2998 0.62619,3.07469 0.19169,4.65931c-0.60653,2.21195 -2.14318,4.08762 -2.14318,4.08762l-6.8321,2.79836c0,0 2.61525,-4.72651 3.60442,-6.81837c0.82828,-1.7516 0.92361,-3.90277 1.02001,-5.21267z" data-paper-data="{&quot;index&quot;:null}"/></g><path d="M351.77123,83.93235z" fill="#211e24" stroke="none" stroke-width="0" stroke-linecap="butt"/><path d="M360.98506,37.04756c0,6.37329 -0.16073,6.40909 -1.66157,8.31391c-1.24565,1.58093 -3.35802,5.2389 -7.58114,7.68898c-1.32533,0.7689 -4.40851,3.52903 -5.10922,6.86651c-0.92534,4.40732 -1.08011,9.32413 -3.2324,11.0222c-0.97738,0.77111 -1.36646,3.27597 -6.11193,4.69579c-3.84974,1.15183 -9.4542,1.34168 -11.73921,1.28887c-5.10169,-0.11792 -6.85009,-3.68767 -10.43012,-6.69705c-1.99952,-1.68079 -1.02024,-4.14522 -2.17707,-9.06987c-0.53832,-2.29163 -3.43951,-7.87762 -4.61315,-8.87309c-3.72621,-3.16056 -4.71358,-5.92052 -6.12895,-8.51469c-0.91043,-1.66868 -1.52456,-4.88619 -1.7018,-7.67722c-0.03485,-0.54879 -0.05281,-1.0811 -0.05281,-1.5819c0,-4.69062 1.9975,-8.92842 4.57701,-13.06668c1.02818,-1.64949 3.04856,-2.57127 4.21311,-4.12936c1.47231,-1.96985 2.11899,-4.52295 3.68096,-6.03548c5.54678,-5.37123 8.89144,-5.58813 17.16422,-5.58813c7.8186,0 12.60275,0.22722 18.04566,5.08498c2.81322,2.51078 3.44769,6.77629 5.71974,10.75014c2.92818,5.12143 7.13867,10.23764 7.13867,15.52213z" fill="#211e24" stroke="none" stroke-width="0" stroke-linecap="butt"/><path d="M311.32101,94.14308c0,0 2.0177,-1.4271 3.50887,-3.00961c1.88259,-1.99791 3.46417,-4.3512 5.085,-5.59294c1.85394,-1.42033 4.54713,-2.34407 4.83232,-3.93421c0.26977,-1.50419 -1.29129,-4.72216 -1.46067,-7.77407c-0.12353,-2.22577 1.2568,-4.19354 0.86284,-6.18033c-0.54771,-2.76217 -0.01606,-4.24395 -0.67944,-6.07076c-0.88348,-2.43296 -2.9049,-4.77672 -2.9049,-4.77672h24.46951c0,0 -1.99923,3.05715 -2.17164,8.36144c-0.08531,2.62448 1.57919,5.31301 2.13255,8.14047c0.3483,1.77972 -0.4003,4.05226 -0.24175,5.02464c0.33907,2.07961 -0.38508,5.91751 0.60946,7.85427c1.6226,3.15989 5.47157,5.42026 5.47157,5.42026z" fill="#211e24" stroke="none" stroke-width="0" stroke-linecap="butt"/><path d="M307.6959,108.46227c0,0 -6.13756,-16.13175 -1.08754,-16.13175c1.4114,0 4.93871,-0.72099 8.03363,-1.80188c2.00232,-0.6993 3.2967,-1.68416 5.49649,-1.83727c7.45326,-0.51878 16.01545,-1.42412 25.83532,-0.52859c1.31791,0.12019 2.18743,1.43421 3.62058,2.04207c1.63184,0.69213 3.83321,0.68368 5.40509,0.76049c19.80972,0.96783 6.43872,17.49694 6.43872,17.49694c0,0 -5.65944,11.17953 -7.34096,26.27333c-1.6366,14.69058 1.66405,41.24559 -2.18547,56.65362c-1.8236,7.29911 1.01676,18.83744 -2.10066,23.89913c-4.002,6.49798 -24.08874,7.50151 -29.1465,-1.26043c-2.41881,-4.19029 0.36626,-15.72334 -1.10214,-21.9082c-3.11583,-13.12375 -3.7134,-40.68372 -4.93335,-53.94874c-1.64189,-17.8531 -6.93322,-29.7087 -6.93322,-29.7087z" fill="#211e24" stroke="none" stroke-width="0" stroke-linecap="butt"/><path d="M295.41056,109.10386c0,0 -8.43539,-14.75204 -4.17081,-22.64152c4.68088,-8.65963 9.56081,5.16385 15.09436,5.16385c0.20688,0 3.31262,4.53457 3.13112,15.09896c-0.16433,9.56494 -3.56038,24.56503 -4.39893,36.59458c-0.23406,3.35774 -2.69601,7.91629 -2.91041,11.1232c-0.2191,3.27716 0.59783,6.66989 0.44937,9.62062c-0.61478,12.21927 -1.7483,20.86842 -2.50255,22.11299c-1.85814,3.06606 -10.07371,7.36499 -13.55073,-0.45533c-0.79314,-1.78389 -0.4343,-15.96684 0.92867,-32.30591c0.25574,-3.06566 -0.41128,-6.92578 -0.00278,-10.01331c0.23314,-1.7621 1.98899,-3.51613 2.27943,-5.24591c2.60222,-15.49863 5.65325,-29.0522 5.65325,-29.0522z" fill="#211e24" stroke="none" stroke-width="0" stroke-linecap="butt"/><path d="M310.42582,206.31782c-7.34953,-4.62279 -8.59945,-8.78687 -13.41498,-12.23653c-4.278,-3.0646 -8.99362,-4.03082 -9.44017,-4.83338c-1.56998,-2.82171 -1.71773,-6.1031 -2.09899,-9.27595c-0.62925,-5.23661 -0.5136,-9.90138 1.70777,-9.67883c1.19714,0.11992 2.26965,-5.09662 9.83191,-0.20478c1.58486,1.0252 12.87725,14.95228 14.63347,16.13944c2.44769,1.65459 9.15432,11.0752 11.90538,12.8695c2.69208,1.75584 11.55858,6.48302 19.30246,12.09974c1.50335,1.0904 2.15855,2.10039 2.21728,3.02452c0.08169,1.28513 -5.4759,-0.47949 -7.02415,0.45909c-0.77405,0.46924 2.81864,3.77712 1.89098,4.15429c-3.47379,1.41234 -7.43155,2.1663 -7.43155,2.1663c0,0 -19.47537,-13.04549 -22.07939,-14.6834z" data-paper-data="{&quot;index&quot;:null}" fill="#211e24" stroke="none" stroke-width="0" stroke-linecap="butt"/><path d="M360.87361,248.34972c0,0 -2.45857,0.4491 -5.95641,-1.71597c-3.64679,-2.25726 -8.38145,-7.1749 -10.54505,-9.33852c-1.39556,-1.39557 -8.75397,-8.10088 -9.94736,-10.4c-1.66584,-3.20932 -2.38865,-6.74239 -2.38865,-6.74239l4.32566,-4.32562c0,0 0.32825,3.3556 1.62325,6.72062c1.08436,2.81768 8.48516,10.3525 9.64894,12.0444c3.49874,5.08645 13.23962,13.75748 13.23962,13.75748z" fill="#211e24" stroke="none" stroke-width="0" stroke-linecap="butt"/><path d="M370.43568,240.01014c0,0 -2.22691,1.1345 -6.19836,0.06206c-4.14055,-1.11812 -10.08541,-4.47355 -12.77809,-5.92677c-1.73683,-0.93736 -9.55911,-7.01563 -11.36104,-8.8766c-2.5153,-2.5977 -4.21981,-5.7757 -4.21981,-5.7757l0.69163,-9.1119c0,0 3.48942,6.8495 5.69403,9.70259c1.846,2.38903 9.94649,9.24991 11.54612,10.53756c4.80907,3.87116 16.6255,9.38877 16.6255,9.38877z" fill="#211e24" stroke="none" stroke-width="0" stroke-linecap="butt"/><path d="M347.73979,218.21387c-1.108,-0.70529 -2.88997,-1.91409 -4.78946,-2.2964c-2.26845,-0.45657 -7.62114,-1.18331 -7.62114,-1.18331l6.32589,-3.80675c0,0 2.42219,-0.11162 4.55833,0.72357c1.5303,0.59832 2.73551,1.95145 3.62178,2.93746c1.37401,1.52864 9.95572,9.63959 11.30095,12.52384c1.29028,2.76647 0.8204,5.14739 0.8204,5.14739c0,0 -10.88574,-11.92543 -14.21676,-14.04581z" data-paper-data="{&quot;index&quot;:null}" fill="#211e24" stroke="none" stroke-width="0" stroke-linecap="butt"/><path d="M367.1648,80.39658c1.48531,0.13149 3.49864,0.21381 4.86681,1.64814c2.45212,2.57075 4.22429,7.52268 7.06889,10.9377c3.19179,3.83182 12.21683,10.44876 23.74583,17.27205c1.67635,0.99212 5.10168,0.38013 6.87139,1.37809c1.8396,1.03736 5.29792,4.44201 7.00475,5.58278c6.35647,4.24834 10.20324,6.86087 15.6973,12.16466c18.67787,18.03103 1.41973,9.94573 -4.8288,10.41356c-1.05297,0.07883 -9.72206,-4.2869 -20.84391,-10.76947c-2.09666,-1.22207 -5.05062,-5.20972 -7.21958,-6.33101c-20.21587,-10.45109 -43.24351,-19.34 -44.10882,-20.29289c-1.61948,-1.7834 1.8402,-5.14284 4.09895,-9.98828c1.40017,-3.00362 1.98371,-8.19895 1.68311,-9.04644c-0.8562,-2.41383 3.17747,-3.21561 5.96408,-2.96891z" fill="#211e24" stroke="none" stroke-width="0" stroke-linecap="butt"/><path d="M314.80804,255.27822c-0.85803,-8.45178 -2.14985,-25.86723 -1.89812,-27.30504c0.88509,-5.05511 4.00717,-19.8776 5.98112,-23.96861c3.25788,-6.75197 4.37243,9.76235 5.78582,12.57543c0.76171,1.51602 5.20873,-3.25404 7.09704,11.08137c0.39575,3.00433 -1.46718,32.03348 -1.06479,35.42149c0.56082,4.72197 -1.3582,23.28544 -0.68166,28.5174c0.66204,5.11982 3.58902,20.76694 5.09319,36.14578c0.29201,2.98557 0.04114,4.90229 -0.5708,6.03365c-0.85096,1.5733 -5.9692,0.03538 -6.89184,-0.59827c-3.45502,-2.37282 -6.78673,-6.06058 -6.78673,-6.06058c0,0 -5.04672,-37.43345 -5.72987,-42.31616c0,0 1.14796,-7.18168 1.19146,-13.09274c0.04645,-6.31023 -1.02614,-11.52149 -1.52483,-16.43373z" data-paper-data="{&quot;index&quot;:null}" fill="#211e24" stroke="none" stroke-width="0" stroke-linecap="butt"/><path d="M288.62654,342.47182c0,0 0.41893,-2.46389 3.64983,-5.01021c3.36848,-2.65474 9.60899,-5.42176 12.38215,-6.7148c1.78874,-0.83403 10.60653,-5.45508 13.17517,-5.79008c3.58554,-0.46762 7.15274,0.06164 7.15274,0.06164l2.58513,5.54431c0,0 -3.26548,-0.83932 -6.87048,-0.77342c-3.01864,0.05518 -12.63038,4.43233 -14.6183,4.94721c-5.97638,1.54791 -17.45624,7.73535 -17.45624,7.73535z" fill="#211e24" stroke="none" stroke-width="0" stroke-linecap="butt"/><path d="M293.19244,354.30965c0,0 -0.30437,-2.48065 2.0618,-5.84572c2.46693,-3.50836 7.6534,-7.94693 9.93999,-9.98011c1.4749,-1.31145 9.86213,-6.58285 12.22719,-7.63957c3.30138,-1.47505 6.8707,-1.98973 6.8707,-1.98973l8.32572,3.7666c0,0 -7.62989,0.93611 -11.06497,2.03186c-2.87634,0.91751 -12.09414,6.18265 -13.85128,7.24536c-5.28259,3.19488 -14.50915,12.41131 -14.50915,12.41131z" fill="#211e24" stroke="none" stroke-width="0" stroke-linecap="butt"/><path d="M353.03591,271.71195c0.04351,5.91105 1.19146,13.09274 1.19146,13.09274c-0.33891,2.42226 -2.7517,13.52207 -4.08949,23.42174c-1.35888,10.05575 -1.64038,18.89441 -1.64038,18.89441c0,0 -3.33171,3.68775 -6.78673,6.06057c-0.92264,0.63365 -6.04089,2.17157 -6.89185,0.59827c-0.61193,-1.13137 -0.8628,-3.04807 -0.57079,-6.03364c1.50417,-15.37885 3.76449,-29.52597 4.42652,-34.64578c0.1746,-1.35019 -0.36761,-3.80741 -0.12694,-6.89903c0.30725,-3.94698 1.36559,-8.82296 1.16085,-12.61752c-0.25631,-4.7506 -2.28023,-9.55318 -2.0489,-11.50086c0.18556,-1.56238 0.60205,-8.69825 0.49697,-15.87032c-0.12278,-8.38053 -0.775,-16.93229 -0.56176,-18.55117c1.88831,-14.33541 6.33533,-9.56535 7.09704,-11.08137c1.41339,-2.81308 2.52794,-19.3274 5.78582,-12.57543c1.97394,4.09101 5.09603,18.91351 5.98112,23.96862c0.25173,1.43781 -1.70676,16.01993 -2.56479,24.47171c-0.31203,3.07354 1.31794,7.76415 0.97125,11.26777c-0.2074,2.09598 -1.8468,5.63731 -1.82941,7.99928z" data-paper-data="{&quot;index&quot;:null}" fill="#211e24" stroke="none" stroke-width="0" stroke-linecap="butt"/><path d="M363.28601,334.73647c-1.98792,-0.51488 -11.59967,-4.89202 -14.6183,-4.94721c-3.605,-0.0659 -6.87049,0.77342 -6.87049,0.77342l2.58514,-5.54431c0,0 3.5672,-0.52927 7.15274,-0.06164c2.56864,0.33499 11.38643,4.95605 13.17517,5.79008c2.77316,1.29303 9.01367,4.06005 12.38215,6.7148c3.2309,2.54632 3.64983,5.01021 3.64983,5.01021c0,0 -11.47985,-6.18744 -17.45623,-7.73535z" data-paper-data="{&quot;index&quot;:null}" fill="#211e24" stroke="none" stroke-width="0" stroke-linecap="butt"/><path d="M376.17635,354.30965c0,0 -9.22656,-9.21642 -14.50915,-12.41131c-1.75714,-1.06272 -10.97494,-6.32786 -13.85128,-7.24536c-3.43508,-1.09575 -11.06498,-2.03186 -11.06498,-2.03186l8.32572,-3.76661c0,0 3.56932,0.51468 6.8707,1.98973c2.36506,1.05671 10.75229,6.32812 12.22719,7.63957c2.28659,2.03319 7.47305,6.47175 9.93998,9.98011c2.36617,3.36507 2.06181,5.84572 2.06181,5.84572z" data-paper-data="{&quot;index&quot;:null}" fill="#211e24" stroke="none" stroke-width="0" stroke-linecap="butt"/><path d="M324.21356,231.71414v-27.5h20v27.5c0,0 -2.26621,-1.35143 -4.25121,-4.10574c-1.01865,-1.41344 -1.77094,-3.58734 -2.6472,-4.95915c-0.71877,-1.12526 -1.57548,-1.60178 -2.26825,-1.60178c-0.55646,0 -1.80361,0.45687 -2.4218,1.54445c-0.95551,1.68103 -1.33443,4.40584 -2.52066,5.68791c-2.81881,3.04655 -5.89088,3.4343 -5.89088,3.4343z" fill="#211e24" stroke="none" stroke-width="0" stroke-linecap="butt"/><path d="M344.29172,172.69035c0,0 0.19888,-10.33088 0.65885,-14.10258c0.32754,-2.68577 1.84115,-6.39742 1.84115,-6.39742" fill="none" stroke="#37323c" stroke-width="2.5" stroke-linecap="round"/><path d="M340.29172,198.69035c0,0 -2.70417,-9.79507 -3.04461,-15.49734c-0.1284,-2.15066 1.50695,-5.405 1.71798,-8.55799c0.32408,-4.84184 -0.67337,-9.44467 -0.67337,-9.44467" fill="none" stroke="#37323c" stroke-width="2.5" stroke-linecap="round"/><path d="M320.79172,109.19035c0,0 1.68417,4.76295 2.35782,7.75699c0.80338,3.57057 2.14218,12.24301 2.14218,12.24301" fill="none" stroke="#37323c" stroke-width="2.5" stroke-linecap="round"/><path d="M306.8378,171.16964c-0.24628,-0.66405 1.55796,-2.01145 1.66833,-2.78263c0.15168,-1.05991 -0.15013,-2.50507 -0.27529,-3.4445c-0.16476,-1.23665 -2.10889,-1.53517 -2.07083,-2.78485c0.23197,-7.61645 4.14128,-15.36411 10.63553,-21.89178c1.88807,-1.89779 5.06471,-4.37157 7.69197,-6.03887c2.7279,-1.73117 4.87266,-2.62054 4.87266,-2.62054l2.63617,1.24432l4.22143,-3.12504c0,0 2.06981,-1.12057 5.0949,-0.541c4.657,0.89222 11.41197,4.03815 15.07225,7.67968c2.26322,2.25164 5.89916,6.33078 8.35835,10.74966c2.7363,4.91683 4.18361,10.0855 4.18361,10.0855l-2.21636,2.70934c0,0 4.03813,2.89349 4.30459,3.93335c2.02133,7.88805 1.87671,13.85278 -0.65244,19.72524c-0.78894,1.83185 -1.38002,5.35578 -2.76126,6.74412c-0.86784,0.87231 -2.88827,2.25543 -2.88827,2.25543l-2.4354,-0.5732l-3.23131,2.77689c0,0 -3.8407,1.63748 -9.33574,0.79694c-8.7562,-1.33937 -21.5237,-5.88765 -28.21506,-10.08028c-0.37464,-0.23474 -0.28169,-1.23129 -0.51249,-1.96033c-0.3533,-1.11595 -1.22605,-1.6092 -1.75263,-1.9836c-0.72409,-0.51484 -1.88521,1.08547 -2.54794,0.558c-1.12818,-0.89795 -2.16236,-1.81116 -3.08523,-2.72929c-7.97721,-7.93637 -5.56471,-5.48095 -6.75953,-8.70254z" fill="#dacdc3" stroke="#c2b2ad" stroke-width="1.5" stroke-linecap="butt"/><path d="M350.51261,148.15559c2.63232,3.49106 2.53198,8.00579 -0.22412,10.08394c-2.7561,2.07815 -7.12428,0.93276 -9.7566,-2.5583c-2.63232,-3.49106 -2.53198,-8.00579 0.22413,-10.08394c2.7561,-2.07815 7.12428,-0.93276 9.7566,2.5583z" fill="#321600" stroke="none" stroke-width="0" stroke-linecap="butt"/><path d="M335.77067,130.848l24.50126,41.303" fill="none" stroke="#c2b2ad" stroke-width="2.5" stroke-linecap="round"/><path d="M359.42369,163.07862l-19.64912,-33.4194" fill="none" stroke="#c2b2ad" stroke-width="2.5" stroke-linecap="round"/><path d="M351.57175,134.34301l-22.96547,6.06936" fill="none" stroke="#c2b2ad" stroke-width="2.5" stroke-linecap="round"/><path d="M330.976,145.35606l25.25082,-7.75883" fill="none" stroke="#c2b2ad" stroke-width="2.5" stroke-linecap="round"/><path d="M350.73531,156.11401l-6.13772,-10.23733" fill="none" stroke="#622b00" stroke-width="3" stroke-linecap="round"/><path d="M353.31249,186.13428l-21.70758,4.19735" fill="none" stroke="#c2b2ad" stroke-width="2.5" stroke-linecap="round"/><path d="M338.5809,192.63708l18.07261,-3.58193" fill="none" stroke="#c2b2ad" stroke-width="2.5" stroke-linecap="round"/><path d="M312.7228,154.01447c-0.76063,2.20192 -5.54675,3.54978 -5.54675,3.54978c0,0 2.23375,-6.93553 4.07224,-9.91282c2.08681,-3.37943 7.79826,-9.31061 7.79826,-9.31061c0,0 -5.56312,13.47172 -6.32376,15.67365z" fill="#c2b2ad" stroke="none" stroke-width="0" stroke-linecap="butt"/><path d="M370.87976,182.45264c0,0 -1.83541,-2.64788 -1.72892,-4.54126c0.1065,-1.89339 2.59839,-10.91636 2.59839,-10.91636c0,0 1.22604,4.60906 1.08152,7.17838c-0.1453,2.58315 -1.95099,8.27923 -1.95099,8.27923z" fill="#c2b2ad" stroke="none" stroke-width="0" stroke-linecap="butt"/><path d="M339.0878,193.34289c0,0 -5.46889,-1.68027 -8.20694,-2.86877c-2.88386,-1.2518 -8.68148,-4.46202 -8.68148,-4.46202c0,0 5.7049,-0.87517 8.79011,0.68454c3.08522,1.55972 8.0983,6.64624 8.0983,6.64624z" fill="#c2b2ad" stroke="none" stroke-width="0" stroke-linecap="butt"/><path d="M355.15617,196.02908c0,0 0.26801,-2.47124 1.80842,-3.84323c0.67203,-0.59856 4.05616,-0.4221 6.96828,-2.53674c1.74742,-1.26889 2.1003,-2.93764 3.38346,-4.47305c1.48,-1.77095 3.76391,-3.33003 3.76391,-3.33003c0,0 -0.4707,2.72315 -1.79003,5.66765c-0.92572,2.06606 -2.57666,4.34445 -3.45386,5.42311c-1.66539,2.04788 -2.5863,-1.51584 -4.12474,0.16792c-0.69596,0.7617 -0.91165,0.99266 -1.39491,1.42309c-2.16448,1.92783 -5.16054,1.50128 -5.16054,1.50128z" fill="#c2b2ad" stroke="none" stroke-width="0" stroke-linecap="butt"/><path d="M329.7718,161.40986c3.827,2.71876 5.26559,7.26476 3.2132,10.15377c-2.0524,2.88901 -6.81859,3.02701 -10.64559,0.30825c-3.827,-2.71876 -5.26558,-7.26477 -3.21319,-10.15377c2.0524,-2.88901 6.81859,-3.02701 10.64559,-0.30825z" fill="#321600" stroke="none" stroke-width="0" stroke-linecap="butt"/><path d="M313.74488,158.65856c-1.203,2.96232 -3.21374,8.10922 -4.38389,8.46137c-0.87705,0.26394 -0.67855,-1.08757 -0.97169,-2.31074c-0.35346,-1.47489 -1.80792,-2.79874 -1.80792,-2.79874c0,0 0.66337,-5.89165 1.70877,-8.46592c1.30549,-3.2147 5.51868,-9.33138 5.51868,-9.33138c0,0 1.48004,1.37528 1.32243,3.47046c-0.11754,1.56262 -1.90773,3.66211 -1.8068,5.15657c0.16389,2.42675 1.72775,2.59913 0.42042,5.81837z" fill="#c37c70" stroke="none" stroke-width="0" stroke-linecap="butt"/><path d="M370.86651,164.16885c0,0 -6.76545,0.0895 -7.78411,-2.30339c-0.2981,-0.70023 -1.35533,-1.77034 -1.21888,-3.68195c0.07686,-1.07691 1.42848,-2.63003 1.30984,-4.02133c-0.17648,-2.06973 -0.28657,-3.05502 -0.69003,-4.95165c-0.48905,-2.29898 0.04966,-4.61733 0.04966,-4.61733c0,0 2.26956,3.55265 3.21641,5.51366c1.0414,2.15683 2.77537,6.89587 2.77537,6.89587l-2.447,3.26525z" fill="#c37c70" stroke="none" stroke-width="0" stroke-linecap="butt"/><path d="M361.40654,151.64935c0.56049,0.29027 1.15356,1.73927 0.70003,2.61503c-0.45353,0.87576 -1.37111,3.47197 -1.9316,3.18171c-0.35126,-0.18191 0.17132,-1.13866 0.11875,-2.0416c-0.03131,-0.53779 -0.7881,-1.05517 -0.61882,-1.38207c0.45353,-0.87576 1.17116,-2.66334 1.73164,-2.37308z" fill="#c37c70" stroke="none" stroke-width="0" stroke-linecap="butt"/><g fill="#211e24" stroke="none" stroke-width="0" stroke-linecap="butt"><path d="M401.39751,163.82204c-3.011,0.6305 -21.82384,5.18053 -21.82384,5.18053c0,0 -3.44881,-2.08281 -6.21496,-4.61468c-0.73868,-0.67612 3.77988,-2.52875 3.21723,-3.2378c-1.1254,-1.41827 -6.94982,-1.69573 -6.42647,-2.87231c0.37635,-0.84608 1.34178,-1.56531 3.13043,-2.06507c9.21347,-2.57434 19.1703,-3.92435 22.30487,-4.63481c3.20323,-0.72601 12.76653,-7.22758 15.63676,-7.92807c2.05939,-0.50259 17.48903,-9.63536 19.33145,-10.04565c8.79118,-1.95781 7.98334,3.30622 9.1475,3.60994c2.16018,0.56357 0.13543,4.66225 -2.275,9.3535c-1.46049,2.84242 -2.06434,5.74111 -4.51733,7.84104c-0.6977,0.59727 -6.95738,0.18676 -12.03394,1.57301c-5.71441,1.56044 -6.99555,5.14943 -15.49373,6.92893z" data-paper-data="{&quot;index&quot;:null}"/><path d="M362.38652,175.89484c1.67937,-1.18181 11.23794,-5.67387 13.23422,-7.93885c2.38403,-2.70494 3.85834,-5.73714 3.85834,-5.73714l2.55212,5.55959c0,0 -1.90596,3.06143 -4.58357,5.49148c-1.91822,1.74085 -11.1487,5.46989 -12.94238,6.29327c-2.7808,1.27652 -8.92971,4.24151 -13.13376,5.0902c-4.03234,0.81404 -6.18144,-0.46173 -6.18144,-0.46173c0,0 12.14771,-4.74392 17.19647,-8.29682z" data-paper-data="{&quot;index&quot;:null}"/><path d="M339.12354,173.04808c0,0 12.99753,-1.06563 18.85242,-3.02353c1.94751,-0.65125 11.92786,-4.26818 14.48924,-5.86646c3.05894,-1.90873 8.71187,-7.11796 8.71187,-7.11796l-2.51914,8.78401c0,0 -2.70299,2.38723 -5.96447,3.94849c-2.33649,1.11848 -11.78391,4.09833 -13.73827,4.37344c-3.02992,0.4265 -9.77047,1.50601 -14.04146,1.11496c-4.09657,-0.37507 -5.79019,-2.21298 -5.79019,-2.21298z" data-paper-data="{&quot;index&quot;:null}"/><path d="M367.98106,160.50121c-3.8604,0.83015 -18.2129,8.22748 -18.2129,8.22748c0,0 0.38712,-2.39576 2.55866,-4.54114c2.26401,-2.23671 13.13014,-6.85845 14.94986,-7.81408c1.17377,-0.61641 2.7742,-1.46617 4.41706,-1.49518c2.29324,-0.04048 4.52555,0.90621 4.52555,0.90621l4.60798,5.76845c0,0 -5.27148,-1.1794 -7.55717,-1.5399c-1.9139,-0.30186 -4.00496,0.21205 -5.28905,0.48818z" data-paper-data="{&quot;index&quot;:null}"/></g></g></g></svg>