{
  "accessors": [
    {
      "bufferView": 2,
      "componentType": 5126,
      "count": 88,
      "max": [
        2.6987500190734863,
        0.038100000470876694,
        4.25
      ],
      "min": [
        -2.6987500190734863,
        -0.038100000470876694,
        -4.25
      ],
      "type": "VEC3"
    },
    {
      "bufferView": 2,
      "byteOffset": 1056,
      "componentType": 5126,
      "count": 88,
      "max": [
        0.995562732219696,
        1.0,
        0.995562732219696
      ],
      "min": [
        -0.995562732219696,
        -1.0,
        -0.995562732219696
      ],
      "type": "VEC3"
    },
    {
      "bufferView": 3,
      "componentType": 5126,
      "count": 88,
      "max": [
        1.0,
        0.0,
        0.995562732219696,
        1.0
      ],
      "min": [
        -1.0,
        0.0,
        -0.995562732219696,
        1.0
      ],
      "type": "VEC4"
    },
    {
      "bufferView": 1,
      "componentType": 5126,
      "count": 88,
      "max": [
        0.9955927729606628,
        0.9955927729606628
      ],
      "min": [
        0.004407248925417662,
        0.15907680988311768
      ],
      "type": "VEC2"
    },
    {
      "bufferView": 0,
      "componentType": 5125,
      "count": 228,
      "type": "SCALAR"
    }
  ],
  "asset": {
    "extras": {
      "author": "nuFF3 (https://sketchfab.com/nuff3)",
      "license": "CC-BY-4.0 (http://creativecommons.org/licenses/by/4.0/)",
      "source": "https://sketchfab.com/3d-models/keycard-a0033bf027364417a7777d98d03980e1",
      "title": "Keycard"
    },
    "generator": "Sketchfab-12.66.0",
    "version": "2.0"
  },
  "bufferViews": [
    {
      "buffer": 0,
      "byteLength": 912,
      "name": "floatBufferViews",
      "target": 34963
    },
    {
      "buffer": 0,
      "byteLength": 704,
      "byteOffset": 912,
      "byteStride": 8,
      "name": "floatBufferViews",
      "target": 34962
    },
    {
      "buffer": 0,
      "byteLength": 2112,
      "byteOffset": 1616,
      "byteStride": 12,
      "name": "floatBufferViews",
      "target": 34962
    },
    {
      "buffer": 0,
      "byteLength": 1408,
      "byteOffset": 3728,
      "byteStride": 16,
      "name": "floatBufferViews",
      "target": 34962
    }
  ],
  "buffers": [
    {
      "byteLength": 5136,
      "uri": "scene.bin"
    }
  ],
  "extensionsRequired": [
    "KHR_materials_pbrSpecularGlossiness"
  ],
  "extensionsUsed": [
    "KHR_materials_pbrSpecularGlossiness"
  ],
  "images": [
    {
      "uri": "textures/Card_Mat_diffuse.png"
    },
    {
      "uri": "textures/Card_Mat_specularGlossiness.png"
    },
    {
      "uri": "textures/Card_Mat_normal.png"
    }
  ],
  "materials": [
    {
      "extensions": {
        "KHR_materials_pbrSpecularGlossiness": {
          "diffuseFactor": [
            1.0,
            1.0,
            1.0,
            1.0
          ],
          "diffuseTexture": {
            "index": 0
          },
          "glossinessFactor": 1.0,
          "specularFactor": [
            0.1,
            0.1,
            0.1
          ],
          "specularGlossinessTexture": {
            "index": 1
          }
        }
      },
      "name": "Card_Mat",
      "normalTexture": {
        "index": 2,
        "scale": 0.15
      }
    }
  ],
  "meshes": [
    {
      "name": "Card_Mesh_Card_Mat_0",
      "primitives": [
        {
          "attributes": {
            "NORMAL": 1,
            "POSITION": 0,
            "TANGENT": 2,
            "TEXCOORD_0": 3
          },
          "indices": 4,
          "material": 0,
          "mode": 4
        }
      ]
    }
  ],
  "nodes": [
    {
      "children": [
        1
      ],
      "matrix": [
        1.0,
        0.0,
        0.0,
        0.0,
        0.0,
        2.220446049250313e-16,
        -1.0,
        0.0,
        0.0,
        1.0,
        2.220446049250313e-16,
        0.0,
        0.0,
        0.0,
        0.0,
        1.0
      ],
      "name": "Sketchfab_model"
    },
    {
      "children": [
        2
      ],
      "matrix": [
        1.0,
        0.0,
        0.0,
        0.0,
        0.0,
        0.0,
        1.0,
        0.0,
        0.0,
        -1.0,
        0.0,
        0.0,
        0.0,
        0.0,
        0.0,
        1.0
      ],
      "name": "Card_model.fbx"
    },
    {
      "children": [
        3,
        5
      ],
      "name": "RootNode"
    },
    {
      "children": [
        4
      ],
      "matrix": [
        -0.4469223170369909,
        -0.4387137793486547,
        -0.7796093010886334,
        0.0,
        -0.2181895391444501,
        0.8986268523751223,
        -0.3806088611663062,
        0.0,
        0.8675562042555052,
        -1.6653345369377348e-16,
        -0.49733915234755055,
        0.0,
        7.498602390289307,
        5.939087867736816,
        10.637738227844238,
        1.0
      ],
      "name": "CINEMA_4D_Editor"
    },
    {
      "name": "Object_4"
    },
    {
      "children": [
        6
      ],
      "name": "Card_Mesh"
    },
    {
      "mesh": 0,
      "name": "Card_Mesh_Card_Mat_0"
    }
  ],
  "samplers": [
    {
      "magFilter": 9729,
      "minFilter": 9987,
      "wrapS": 10497,
      "wrapT": 10497
    }
  ],
  "scene": 0,
  "scenes": [
    {
      "name": "Sketchfab_Scene",
      "nodes": [
        0
      ]
    }
  ],
  "textures": [
    {
      "sampler": 0,
      "source": 0
    },
    {
      "sampler": 0,
      "source": 1
    },
    {
      "sampler": 0,
      "source": 2
    }
  ]
}
