{
  "accessors": [
    {
      "bufferView": 2,
      "componentType": 5126,
      "count": 23109,
      "max": [
        27.884004592895508,
        50.37934494018555,
        36.29707336425781
      ],
      "min": [
        -27.884004592895508,
        -53.75333786010742,
        -36.2054557800293
      ],
      "type": "VEC3"
    },
    {
      "bufferView": 2,
      "byteOffset": 277308,
      "componentType": 5126,
      "count": 23109,
      "max": [
        0.9999768137931824,
        0.9999989867210388,
        0.9998878240585327
      ],
      "min": [
        -0.9999767541885376,
        -0.9999550580978394,
        -0.999995231628418
      ],
      "type": "VEC3"
    },
    {
      "bufferView": 3,
      "componentType": 5126,
      "count": 23109,
      "max": [
        0.9999991655349731,
        0.9999805688858032,
        0.9982074499130249,
        1.0
      ],
      "min": [
        -1.0,
        -0.9999974370002747,
        -0.9982284903526306,
        -1.0
      ],
      "type": "VEC4"
    },
    {
      "bufferView": 1,
      "componentType": 5126,
      "count": 23109,
      "max": [
        0.9674950242042542,
        0.9990230202674866
      ],
      "min": [
        0.0009769999887794256,
        0.0009769999887794256
      ],
      "type": "VEC2"
    },
    {
      "bufferView": 0,
      "componentType": 5125,
      "count": 132384,
      "type": "SCALAR"
    }
  ],
  "asset": {
    "extras": {
      "author": "FaceTheEdge (https://sketchfab.com/faceTheEdge)",
      "license": "CC-BY-4.0 (http://creativecommons.org/licenses/by/4.0/)",
      "source": "https://sketchfab.com/3d-models/old-school-chair-328ef4d142f846ada819215e9cc60007",
      "title": "Old School Chair"
    },
    "generator": "Sketchfab-12.65.0",
    "version": "2.0"
  },
  "bufferViews": [
    {
      "buffer": 0,
      "byteLength": 529536,
      "name": "floatBufferViews",
      "target": 34963
    },
    {
      "buffer": 0,
      "byteLength": 184872,
      "byteOffset": 529536,
      "byteStride": 8,
      "name": "floatBufferViews",
      "target": 34962
    },
    {
      "buffer": 0,
      "byteLength": 554616,
      "byteOffset": 714408,
      "byteStride": 12,
      "name": "floatBufferViews",
      "target": 34962
    },
    {
      "buffer": 0,
      "byteLength": 369744,
      "byteOffset": 1269024,
      "byteStride": 16,
      "name": "floatBufferViews",
      "target": 34962
    }
  ],
  "buffers": [
    {
      "byteLength": 1638768,
      "uri": "scene.bin"
    }
  ],
  "images": [
    {
      "uri": "textures/blinn4_baseColor.png"
    },
    {
      "uri": "textures/blinn4_metallicRoughness.png"
    },
    {
      "uri": "textures/blinn4_normal.png"
    }
  ],
  "materials": [
    {
      "doubleSided": true,
      "name": "blinn4",
      "normalTexture": {
        "index": 2
      },
      "pbrMetallicRoughness": {
        "baseColorTexture": {
          "index": 0
        },
        "metallicRoughnessTexture": {
          "index": 1
        }
      }
    }
  ],
  "meshes": [
    {
      "name": "C_officeChair002_PLY_blinn4_0",
      "primitives": [
        {
          "attributes": {
            "NORMAL": 1,
            "POSITION": 0,
            "TANGENT": 2,
            "TEXCOORD_0": 3
          },
          "indices": 4,
          "material": 0,
          "mode": 4
        }
      ]
    }
  ],
  "nodes": [
    {
      "children": [
        1
      ],
      "matrix": [
        0.008805151097476482,
        0.0,
        0.0,
        0.0,
        0.0,
        1.9551362967443714e-18,
        -0.008805151097476482,
        0.0,
        0.0,
        0.008805151097476482,
        1.9551362967443714e-18,
        0.0,
        0.0,
        0.0,
        0.0,
        1.0
      ],
      "name": "Sketchfab_model"
    },
    {
      "children": [
        2
      ],
      "matrix": [
        1.0,
        0.0,
        0.0,
        0.0,
        0.0,
        0.0,
        1.0,
        0.0,
        0.0,
        -1.0,
        0.0,
        0.0,
        0.0,
        0.0,
        0.0,
        1.0
      ],
      "name": "fa064ffa379343f0b09842af77488ed3.fbx"
    },
    {
      "children": [
        3
      ],
      "name": "RootNode"
    },
    {
      "children": [
        4
      ],
      "matrix": [
        1.0235320329666138,
        0.0,
        0.0,
        0.0,
        0.0,
        1.0235320329666138,
        0.0,
        0.0,
        0.0,
        0.0,
        1.0235320329666138,
        0.0,
        -0.8025099039077759,
        55.254310607910156,
        -0.0010779750300571322,
        1.0
      ],
      "name": "C_officeChair002_PLY"
    },
    {
      "mesh": 0,
      "name": "C_officeChair002_PLY_blinn4_0"
    }
  ],
  "samplers": [
    {
      "magFilter": 9729,
      "minFilter": 9987,
      "wrapS": 10497,
      "wrapT": 10497
    }
  ],
  "scene": 0,
  "scenes": [
    {
      "name": "Sketchfab_Scene",
      "nodes": [
        0
      ]
    }
  ],
  "textures": [
    {
      "sampler": 0,
      "source": 0
    },
    {
      "sampler": 0,
      "source": 1
    },
    {
      "sampler": 0,
      "source": 2
    }
  ]
}
